<?xml version="1.0" standalone="no"?>
<!DOCTYPE svg PUBLIC "-//W3C//DTD SVG 20010904//EN"
 "http://www.w3.org/TR/2001/REC-SVG-20010904/DTD/svg10.dtd">
<svg version="1.0" xmlns="http://www.w3.org/2000/svg"
 width="512.000000pt" height="512.000000pt" viewBox="0 0 512.000000 512.000000"
 preserveAspectRatio="xMidYMid meet">
<metadata>
Created by potrace 1.14, written by Peter Selinger 2001-2017
</metadata>
<g transform="translate(0.000000,512.000000) scale(0.100000,-0.100000)"
fill="#000000" stroke="none">
<path d="M1593 5114 c3 -3 22 -6 42 -6 20 0 39 3 42 6 4 3 -15 6 -42 6 -27 0
-46 -3 -42 -6z"/>
<path d="M1755 5110 c-3 -5 1 -10 10 -10 9 0 13 5 10 10 -3 6 -8 10 -10 10 -2
0 -7 -4 -10 -10z"/>
<path d="M1870 5105 c0 -8 5 -15 10 -15 6 0 10 7 10 15 0 8 -4 15 -10 15 -5 0
-10 -7 -10 -15z"/>
<path d="M1900 5105 c0 -8 7 -15 15 -15 8 0 15 7 15 15 0 8 -7 15 -15 15 -8 0
-15 -7 -15 -15z"/>
<path d="M1946 5104 c-5 -14 0 -16 37 -12 28 3 47 1 55 -9 7 -7 17 -11 22 -8
4 3 51 6 105 6 83 1 96 4 93 18 -3 14 -25 16 -154 19 -134 2 -152 1 -158 -14z"/>
<path d="M2338 5113 c-53 -3 -68 -7 -68 -19 0 -9 8 -14 18 -13 9 1 25 -2 36
-6 22 -9 98 15 104 33 2 7 -2 11 -10 10 -7 -1 -43 -3 -80 -5z"/>
<path d="M1804 5101 c4 -5 13 -8 21 -7 25 4 25 12 -1 14 -14 1 -23 -2 -20 -7z"/>
<path d="M2585 5080 c3 -6 11 -8 16 -4 5 3 15 1 22 -4 7 -6 41 -9 77 -6 36 2
77 4 93 4 15 0 27 4 27 9 0 5 -54 9 -121 10 -81 1 -118 -2 -114 -9z"/>
<path d="M3290 5061 c0 -5 9 -13 20 -16 11 -4 20 -15 20 -26 0 -16 2 -18 14
-7 10 9 11 15 2 20 -14 10 -15 10 77 11 44 1 81 -2 84 -6 6 -11 76 -4 85 8 5
7 14 6 28 -2 27 -17 50 -16 50 2 0 13 -22 15 -137 15 -76 1 -162 3 -190 6 -30
2 -53 0 -53 -5z"/>
<path d="M2781 4994 c0 -11 3 -14 6 -6 3 7 2 16 -1 19 -3 4 -6 -2 -5 -13z"/>
<path d="M3456 4995 c4 -8 10 -15 15 -15 5 0 14 -10 19 -22 8 -21 9 -21 9 -3
0 23 -21 55 -37 55 -6 0 -9 -7 -6 -15z"/>
<path d="M3352 4956 c-7 -16 -8 -26 -1 -26 12 0 22 25 17 41 -2 6 -9 0 -16
-15z"/>
<path d="M877 4790 c-15 -18 -15 -21 -2 -26 8 -4 15 -12 15 -20 0 -8 3 -13 8
-12 4 1 59 -1 122 -5 448 -27 579 -29 603 -9 20 17 40 6 33 -16 -12 -38 6 -44
130 -42 254 4 273 5 285 18 7 6 11 12 9 13 -3 0 -48 3 -100 5 -164 7 -231 12
-237 18 -15 14 13 19 90 16 156 -6 200 -5 204 6 5 14 -83 23 -293 30 -143 4
-164 3 -164 -11 0 -19 -15 -19 -32 -1 -9 10 -28 12 -65 9 -30 -3 -58 -1 -65 5
-15 12 -114 21 -277 27 -64 2 -145 7 -181 10 -58 6 -67 4 -83 -15z m53 -10 c0
-5 -2 -10 -4 -10 -3 0 -8 5 -11 10 -3 6 -1 10 4 10 6 0 11 -4 11 -10z"/>
<path d="M135 4790 c-3 -5 -1 -10 4 -10 6 0 11 5 11 10 0 6 -2 10 -4 10 -3 0
-8 -4 -11 -10z"/>
<path d="M383 4775 c10 -10 16 -26 14 -36 -4 -13 0 -16 16 -13 30 5 41 28 17
32 -11 2 -18 8 -15 13 4 5 2 9 -4 9 -5 0 -18 3 -28 7 -17 7 -17 6 0 -12z"/>
<path d="M550 4770 c0 -5 5 -10 10 -10 6 0 10 5 10 10 0 6 -4 10 -10 10 -5 0
-10 -4 -10 -10z"/>
<path d="M595 4770 c-3 -5 -1 -10 4 -10 6 0 11 5 11 10 0 6 -2 10 -4 10 -3 0
-8 -4 -11 -10z"/>
<path d="M2365 4769 c-22 -4 -62 -11 -90 -14 -49 -6 -141 -39 -160 -58 -6 -6
12 -7 50 -3 l60 6 -45 -25 -45 -25 35 2 c19 1 40 6 47 11 6 4 17 7 25 6 37 -8
115 13 142 37 27 25 31 26 104 20 43 -4 92 -9 110 -12 19 -4 32 -2 32 4 0 6
-10 8 -22 5 -23 -5 -23 -5 -3 11 14 12 16 19 7 22 -6 3 -10 10 -6 15 7 11
-185 10 -241 -2z"/>
<path d="M2713 4772 c-25 -2 -33 -8 -33 -23 0 -15 7 -19 36 -19 21 0 33 -4 29
-10 -3 -5 -15 -10 -26 -10 -10 0 -19 -4 -19 -10 0 -5 13 -10 29 -10 33 0 136
59 124 71 -10 8 -96 15 -140 11z"/>
<path d="M481 4751 c-7 -5 -11 -15 -9 -22 3 -10 8 -7 17 9 13 24 12 26 -8 13z"/>
<path d="M3320 4690 c0 -5 5 -10 10 -10 6 0 10 5 10 10 0 6 -4 10 -10 10 -5 0
-10 -4 -10 -10z"/>
<path d="M3356 4692 c-3 -3 -6 -10 -6 -15 0 -13 100 -1 114 13 13 13 -13 14
-33 1 -7 -5 -26 -5 -42 -1 -15 5 -30 6 -33 2z"/>
<path d="M3535 4690 c3 -5 8 -10 11 -10 2 0 4 5 4 10 0 6 -5 10 -11 10 -5 0
-7 -4 -4 -10z"/>
<path d="M3565 4691 c-3 -5 -1 -12 5 -16 5 -3 10 1 10 9 0 18 -6 21 -15 7z"/>
<path d="M3590 4684 c0 -14 6 -15 117 -21 71 -3 98 -1 122 12 17 8 31 17 31
18 0 1 -61 2 -135 2 -90 0 -135 -4 -135 -11z"/>
<path d="M590 4671 c0 -12 5 -21 10 -21 6 0 10 6 10 14 0 8 -4 18 -10 21 -5 3
-10 -3 -10 -14z"/>
<path d="M2830 4680 c0 -5 5 -10 10 -10 6 0 10 5 10 10 0 6 -4 10 -10 10 -5 0
-10 -4 -10 -10z"/>
<path d="M2925 4670 c-17 -7 -14 -9 13 -9 20 -1 31 3 27 9 -7 12 -13 12 -40 0z"/>
<path d="M2490 4660 c-36 -4 -77 -12 -92 -18 -16 -7 -28 -7 -30 -2 -2 6 -29 7
-68 2 -36 -4 -103 -6 -150 -5 -210 6 -270 -2 -375 -51 -38 -19 -81 -36 -95
-40 -44 -13 -110 -46 -110 -55 0 -5 -8 -7 -18 -4 -27 7 -113 -34 -155 -75 -50
-48 -118 -147 -128 -186 -5 -23 -7 -26 -8 -9 -1 12 8 45 19 73 36 91 19 96
-36 13 -53 -80 -57 -83 -139 -78 -38 3 -114 7 -167 9 -53 2 -101 6 -105 9 -5
3 -29 1 -53 -4 -30 -7 -45 -7 -50 1 -4 6 -14 8 -23 4 -10 -3 -28 1 -42 10 -13
9 -29 16 -35 16 -15 0 -12 -21 5 -34 14 -10 13 -18 -6 -71 -11 -32 -27 -72
-35 -87 -13 -26 -13 -29 3 -35 10 -3 28 -16 40 -28 l22 -21 -32 4 c-18 3 -38
9 -45 15 -11 9 -13 7 -11 -8 2 -11 0 -25 -4 -32 -12 -18 1 -21 131 -27 117 -6
122 -5 122 14 0 21 -15 27 -25 10 -7 -11 -34 -2 -54 17 -11 12 -17 11 -38 -2
-32 -21 -39 -13 -18 19 16 24 27 30 47 27 12 -2 9 17 -3 24 -6 4 -19 -2 -30
-14 -25 -26 -31 -26 -47 -1 -7 12 -17 18 -22 15 -7 -5 -8 39 0 55 3 7 7 22 8
38 1 6 9 12 17 12 8 0 15 7 15 15 0 23 41 28 158 21 59 -4 158 -9 221 -12 63
-2 116 -6 118 -8 2 -1 -2 -17 -8 -35 -7 -19 -9 -60 -6 -99 3 -37 1 -83 -5
-103 l-10 -36 -54 52 c-30 29 -54 50 -54 48 0 -13 28 -52 57 -80 55 -53 36
-100 -30 -75 -43 16 -46 7 -5 -14 18 -9 34 -18 36 -19 2 -2 -23 -47 -56 -102
-32 -54 -69 -117 -82 -139 -20 -38 -70 -76 -70 -55 0 5 -16 5 -35 1 -19 -4
-37 -4 -40 0 -5 8 -96 14 -349 25 -65 3 -123 8 -129 12 -6 4 -8 -3 -4 -18 3
-13 -1 -42 -9 -64 -16 -48 -17 -58 -4 -50 6 3 10 15 10 26 0 14 7 19 28 19 16
0 37 6 48 14 15 12 23 12 39 2 19 -11 190 -21 386 -21 l77 0 -19 -37 c-20 -40
-25 -103 -9 -113 15 -9 12 -38 -3 -32 -45 17 -72 -83 -64 -236 5 -102 17 -132
49 -124 23 7 23 -9 0 -22 -31 -16 -55 -127 -47 -210 6 -59 12 -157 17 -263 0
-16 6 -28 11 -28 7 0 7 -4 0 -11 -16 -16 -7 -60 34 -157 19 -46 32 -86 30 -89
-9 -9 -27 7 -27 25 0 9 -9 28 -19 41 -18 23 -18 22 -18 -60 -1 -46 4 -89 9
-96 5 -7 6 -18 2 -25 -12 -18 -5 -58 12 -75 8 -8 14 -22 14 -32 0 -24 27 -46
73 -61 24 -7 39 -19 42 -33 3 -12 18 -83 34 -157 35 -161 43 -185 130 -377 50
-109 122 -228 187 -308 33 -42 37 -52 35 -97 -1 -24 -5 -28 -31 -28 -18 0 -42
11 -63 30 -53 46 -86 41 -155 -23 -32 -30 -81 -63 -112 -76 -30 -13 -62 -29
-71 -37 -8 -8 -19 -14 -23 -14 -4 0 -20 -8 -34 -18 -32 -22 -63 -22 -116 1
-45 20 -46 20 -46 7 0 -5 7 -10 15 -10 8 0 15 -6 15 -13 0 -11 -26 -36 -145
-137 -61 -52 -67 -62 -57 -90 l8 -21 23 25 c15 16 19 26 11 31 -10 6 26 54 43
55 13 0 7 -28 -8 -34 -8 -3 -15 -11 -15 -17 0 -8 7 -6 18 4 26 24 46 22 33 -2
-6 -10 -8 -21 -5 -24 10 -9 34 4 34 19 0 8 5 14 10 14 6 0 10 7 10 15 0 17 12
19 26 5 7 -7 15 -2 24 15 7 14 21 25 31 25 9 0 20 6 22 13 4 8 6 8 6 1 1 -7
-6 -25 -14 -40 -8 -16 -15 -23 -15 -16 0 6 -4 12 -10 12 -5 0 -10 -6 -10 -14
0 -8 -6 -16 -12 -19 -10 -4 -10 -7 0 -18 16 -18 15 -37 -4 -56 -22 -22 -40 -2
-23 25 17 27 7 37 -20 20 -12 -7 -21 -23 -21 -37 0 -18 -4 -22 -20 -18 -11 3
-17 1 -14 -4 3 -6 0 -17 -7 -26 -11 -13 -10 -17 3 -27 11 -8 14 -17 7 -27 -5
-8 -9 -11 -10 -6 -1 4 -2 11 -3 15 0 5 -9 17 -19 27 -13 12 -15 21 -8 28 16
16 13 27 -5 27 -13 0 -15 -7 -9 -38 7 -39 41 -102 55 -102 5 0 11 6 14 13 3 8
9 6 20 -7 22 -27 28 -16 13 24 -9 26 -9 34 1 37 17 6 15 23 -3 23 -16 0 -20
12 -8 24 4 4 15 -3 24 -15 16 -21 17 -21 37 -3 51 47 62 49 62 14 0 -10 7 -23
15 -30 8 -7 15 -21 15 -31 0 -11 5 -19 10 -19 6 0 10 -4 10 -10 0 -12 -36 -50
-48 -50 -4 0 -20 -16 -35 -35 -39 -49 -19 -44 37 10 27 25 53 45 58 45 6 0 7
11 3 28 -6 26 -6 26 9 7 14 -17 17 -18 26 -5 6 10 10 11 10 3 0 -7 -9 -22 -21
-34 -20 -20 -19 -59 1 -59 5 0 7 7 4 15 -4 8 1 26 10 40 9 13 16 35 16 49 0
29 15 43 23 22 3 -8 -4 -35 -17 -60 -18 -36 -20 -46 -9 -46 8 0 17 9 20 20 3
11 12 20 19 20 21 0 17 -23 -6 -38 -11 -7 -20 -21 -20 -32 0 -11 -4 -20 -10
-20 -5 0 -10 -8 -10 -17 1 -17 1 -17 14 0 7 9 16 17 20 17 12 0 66 63 81 94
18 35 18 36 5 36 -5 0 -10 -7 -10 -16 0 -17 -22 -14 -28 4 -2 7 3 12 12 12 9
0 16 5 16 11 0 5 4 8 9 5 5 -4 11 0 14 6 2 7 8 10 12 6 4 -4 2 -21 -5 -37 -6
-16 -9 -39 -5 -52 5 -14 2 -25 -6 -30 -11 -7 -11 -9 1 -9 17 0 50 -34 50 -50
0 -6 -6 -10 -13 -10 -8 0 -22 -9 -33 -21 -10 -11 -26 -18 -35 -16 -11 3 -21
-7 -34 -35 -10 -24 -22 -37 -30 -34 -7 2 -18 -6 -25 -19 -7 -14 -16 -23 -19
-21 -3 2 -15 -5 -25 -15 -11 -11 -16 -19 -13 -19 9 0 48 21 69 39 10 7 24 11
33 7 9 -3 26 0 38 6 12 7 25 12 30 13 4 0 16 15 27 33 20 32 40 35 40 7 0 -8
9 -21 21 -29 12 -8 19 -18 16 -23 -8 -14 12 -53 28 -53 15 0 15 2 0 16 -10 11
-14 25 -11 40 4 14 2 24 -4 24 -5 0 -10 7 -10 15 0 8 -4 15 -10 15 -18 0 -11
39 10 53 12 8 18 20 15 30 -4 8 -2 18 4 22 6 3 11 -1 11 -9 0 -22 12 -20 45 5
22 18 29 20 36 8 13 -20 11 -32 -4 -26 -7 3 -23 -6 -36 -19 -20 -21 -21 -25
-7 -30 9 -3 16 -14 16 -24 0 -11 4 -21 9 -24 11 -7 2 -46 -10 -46 -4 0 -13 8
-18 18 -13 22 -14 1 -1 -33 6 -17 16 -25 27 -23 10 1 24 -1 30 -5 7 -5 13 -4
13 2 0 5 -4 13 -10 16 -5 3 -10 16 -10 28 0 22 1 22 20 -3 11 -14 20 -30 20
-36 0 -8 49 -12 155 -12 133 -1 155 1 155 14 0 8 5 12 10 9 6 -4 8 -11 5 -16
-4 -5 54 -9 145 -9 149 0 151 0 159 24 11 27 32 38 50 26 9 -5 10 -10 2 -14
-19 -12 -12 -36 10 -36 11 0 17 5 14 10 -3 5 1 10 10 10 9 0 13 -5 10 -10 -4
-6 8 -10 29 -10 34 0 35 0 25 33 -5 17 -14 43 -21 56 -10 19 -10 25 0 28 18 7
15 21 -9 34 -17 8 -20 8 -14 -1 5 -8 3 -11 -6 -8 -8 3 -13 12 -11 20 1 9 -4
18 -12 21 -27 11 -176 281 -162 294 3 3 43 -30 89 -73 46 -44 109 -94 139
-112 76 -45 308 -106 308 -80 0 7 4 7 13 1 6 -6 24 -13 39 -17 22 -5 25 -3 21
14 -7 26 14 26 22 0 6 -18 15 -20 119 -20 124 0 268 21 331 47 39 17 140 80
199 126 41 31 80 76 86 101 4 12 14 21 25 21 28 0 30 29 6 75 -11 22 -16 40
-11 40 6 0 8 11 4 26 -5 19 -4 25 5 20 6 -4 11 -20 11 -35 0 -29 20 -81 32
-81 13 0 48 52 41 63 -3 5 -1 7 5 3 5 -3 24 12 42 34 23 29 30 45 25 61 -6 17
-4 21 8 16 11 -4 30 25 76 116 109 217 244 454 249 438 2 -5 -6 -46 -18 -91
-12 -45 -19 -85 -16 -87 3 -3 17 35 31 83 15 49 36 121 49 159 22 70 22 70 4
140 -27 102 -32 182 -18 273 6 43 15 84 18 89 4 6 26 12 50 16 53 7 53 9 6
-169 -19 -76 -34 -151 -32 -168 3 -28 5 -26 16 19 47 192 83 309 99 321 10 7
30 16 44 19 59 13 109 110 134 257 26 157 23 148 58 148 47 0 75 10 82 28 10
25 -12 37 -25 13 -8 -15 -17 -20 -31 -16 -22 7 -64 16 -97 20 -36 4 -36 12 2
19 19 4 38 11 41 16 8 14 7 285 -2 318 -6 24 -7 25 -14 7 -4 -11 -8 -60 -9
-110 0 -73 -4 -95 -20 -115 -15 -19 -22 -22 -31 -13 -15 15 -4 47 13 37 7 -4
3 3 -10 15 -12 12 -19 27 -16 33 5 7 -2 9 -20 4 -18 -4 -34 -2 -44 6 -12 10
-14 10 -8 1 5 -9 2 -11 -8 -7 -9 3 -16 10 -16 15 0 5 -5 9 -11 9 -6 0 -9 -7
-5 -15 3 -8 1 -15 -4 -15 -15 0 -11 21 14 74 19 42 24 46 28 28 4 -14 14 -22
26 -22 22 0 57 29 47 38 -3 4 -10 0 -15 -7 -11 -19 -41 -6 -34 14 4 10 0 15
-10 15 -9 0 -16 5 -16 11 0 6 9 9 20 6 11 -3 20 -1 20 4 0 5 -6 9 -14 9 -7 0
-16 12 -19 26 -3 18 -1 24 9 20 9 -3 14 2 14 14 0 11 -7 20 -15 20 -14 0 -15
14 -6 73 0 4 14 7 29 7 21 0 40 12 73 47 l44 47 1 83 c2 116 -9 162 -50 198
-19 17 -37 41 -41 55 -18 63 -112 197 -128 181 -5 -5 5 -35 24 -72 47 -94 49
-98 49 -109 0 -5 -7 -10 -16 -10 -8 0 -12 5 -9 10 3 6 1 10 -5 10 -6 0 -10 -8
-9 -17 1 -10 -2 -27 -6 -37 -5 -11 -4 -31 2 -45 5 -15 6 -36 2 -46 -4 -11 -8
-60 -8 -110 -1 -74 3 -96 20 -124 20 -33 20 -35 3 -85 -9 -28 -16 -71 -16 -96
0 -25 -3 -51 -7 -58 -4 -7 -7 30 -7 82 1 77 -2 96 -14 100 -8 2 -4 4 10 5 21
1 22 3 10 15 -8 7 -33 16 -55 19 -39 6 -40 6 -18 -11 18 -14 22 -29 25 -95 2
-42 0 -77 -4 -77 -5 0 -8 9 -8 21 0 11 -4 18 -9 15 -15 -9 -19 16 -8 51 5 17
7 39 3 48 -5 15 -7 15 -22 1 -17 -18 -17 -115 1 -117 12 -2 34 -51 28 -61 -2
-5 -15 -8 -29 -8 -33 0 -45 -34 -36 -102 9 -76 9 -327 -1 -368 -8 -33 -8 -34
7 -15 21 28 21 2 -1 -50 -14 -35 -25 -45 -79 -68 -57 -24 -75 -27 -181 -27
-162 0 -326 28 -630 105 -297 76 -286 76 -514 9 -401 -118 -549 -147 -739
-148 -84 0 -158 5 -195 14 -33 8 -64 14 -69 15 -10 0 -66 46 -108 89 -72 73
-93 279 -50 486 22 105 61 237 88 296 26 58 41 136 37 195 -1 32 1 59 6 59 5
0 11 15 14 33 10 59 28 142 34 157 3 8 7 20 8 26 8 35 38 135 52 169 8 22 17
49 18 60 1 11 3 23 4 27 0 3 9 4 20 1 25 -6 35 11 21 38 -15 26 -3 40 14 16
17 -22 26 -22 26 3 0 11 -4 20 -10 20 -5 0 -10 7 -10 15 0 22 25 18 36 -5 9
-20 9 -20 43 1 l35 21 -23 17 c-22 17 -21 51 2 51 6 0 7 -3 4 -6 -3 -4 -2 -15
4 -26 8 -15 17 -18 36 -13 33 8 123 67 117 76 -2 4 4 5 13 3 10 -2 23 -1 29 3
16 11 28 73 15 73 -13 0 -15 26 -3 34 22 13 52 -8 58 -41 5 -24 10 -31 17 -24
7 7 5 23 -6 53 -13 33 -14 44 -4 50 22 14 35 8 40 -18 3 -18 1 -24 -9 -20 -17
7 -17 4 -2 -29 13 -30 11 -29 74 -9 62 21 66 25 48 48 -12 17 -14 18 -14 3 0
-9 -4 -17 -10 -17 -5 0 -10 5 -10 11 0 14 -25 6 -26 -9 -1 -7 -2 -17 -3 -23
-3 -26 -26 1 -27 32 -2 33 10 59 27 59 17 0 9 -20 -8 -21 -15 0 -15 -2 2 -8
24 -10 38 -4 31 14 -7 20 13 32 65 39 45 7 99 -7 99 -26 0 -4 5 -8 10 -8 14 0
12 27 -2 33 -10 3 -10 7 -1 17 13 15 33 5 33 -17 0 -23 37 -66 43 -51 4 10 6
10 6 1 1 -7 8 -13 16 -13 13 0 15 7 9 35 l-6 35 40 0 c28 0 42 -5 46 -16 9
-24 1 -28 -17 -9 -25 24 -37 18 -37 -20 0 -36 0 -36 36 -29 25 4 35 3 31 -4
-4 -5 0 -13 9 -16 22 -8 24 -8 19 7 -4 8 7 13 31 14 23 1 34 -2 31 -10 -2 -7
-12 -11 -21 -11 -9 1 -16 -2 -16 -7 0 -5 11 -9 25 -9 14 0 25 5 25 12 0 7 5 5
13 -4 10 -15 18 -15 57 -5 25 7 50 16 57 20 6 4 14 3 18 -3 3 -5 24 -10 47
-10 31 0 39 3 35 15 -4 8 -2 17 2 20 5 2 11 -4 14 -16 5 -18 10 -19 44 -13 21
4 47 10 58 15 17 7 17 8 3 8 -19 1 -22 9 -10 27 5 7 14 7 29 -1 13 -7 20 -15
16 -18 -3 -4 -1 -7 5 -7 6 0 16 8 21 18 9 15 10 14 11 -6 0 -13 4 -20 10 -17
5 3 17 2 26 -3 18 -10 54 -5 54 8 0 5 -9 6 -20 3 -15 -4 -20 0 -20 16 0 14 4
20 11 15 7 -4 10 -2 8 5 -3 7 -8 12 -13 11 -11 -2 -26 20 -26 38 0 6 10 12 23
12 17 0 19 -2 7 -10 -10 -6 3 -8 38 -5 39 4 69 -1 116 -19 45 -17 67 -21 75
-13 7 7 13 3 20 -15 5 -14 16 -28 23 -31 9 -3 10 -8 2 -16 -17 -18 -5 -61 16
-61 12 0 21 -10 25 -30 7 -30 19 -38 30 -20 11 18 26 11 36 -18 12 -34 43 -41
33 -8 -4 17 -3 18 5 6 6 -8 11 -10 11 -5 0 6 5 2 11 -7 5 -10 16 -18 23 -18 8
0 17 -7 20 -16 9 -24 7 -31 -4 -14 -8 13 -10 12 -10 -2 0 -13 8 -18 25 -18 18
0 25 -5 25 -20 0 -11 5 -20 10 -20 6 0 10 -12 10 -26 0 -19 4 -25 14 -21 10 4
17 -3 21 -23 4 -16 4 -33 2 -37 -3 -5 1 -21 9 -38 13 -30 13 -30 8 -2 -4 15
-2 27 4 27 13 0 19 -18 17 -57 0 -18 3 -33 7 -33 4 0 8 7 8 15 0 8 5 15 10 15
6 0 10 -18 10 -39 0 -22 3 -46 6 -55 10 -27 24 -18 24 16 0 31 1 31 18 15 16
-17 16 -19 -10 -42 -38 -33 -35 -52 3 -24 28 20 31 26 26 64 -6 56 -37 119
-61 123 -13 3 -16 0 -11 -9 6 -8 4 -10 -4 -4 -7 4 -10 17 -7 29 13 51 -18 105
-110 186 -49 44 -139 149 -132 155 3 3 31 -24 63 -60 32 -35 61 -62 65 -60 3
2 13 -5 20 -16 8 -10 18 -19 23 -19 14 0 61 -60 84 -109 21 -45 22 -45 22 -15
1 30 -73 174 -89 174 -17 0 -61 43 -51 49 12 8 -7 61 -22 61 -5 0 -5 9 -2 20
4 11 2 20 -4 20 -6 0 -10 5 -8 11 3 14 -51 23 -66 11 -15 -10 -71 -8 -74 3 -1
4 -7 12 -15 16 -9 6 -5 8 12 7 20 -3 25 1 24 19 -1 12 5 24 13 27 8 3 11 1 8
-4 -3 -6 -1 -10 4 -10 10 0 15 14 12 33 0 4 4 7 9 7 6 0 10 -4 10 -8 0 -5 6
-9 14 -9 8 0 12 6 10 12 -5 13 -31 16 -54 8 -25 -10 -80 -10 -86 -1 -3 4 9 8
25 8 28 0 33 5 30 26 -1 8 22 24 34 24 4 0 7 -5 7 -11 0 -5 -4 -8 -8 -5 -5 3
-9 -1 -9 -9 0 -19 4 -19 33 4 14 11 20 22 15 25 -5 3 -12 1 -14 -4 -3 -6 -4
-5 -3 2 2 7 12 11 22 10 15 -3 16 -1 7 8 -6 7 -9 19 -6 26 3 8 -1 14 -11 14
-9 0 -16 -3 -16 -8 0 -11 -69 -30 -91 -25 -10 3 -16 9 -13 14 3 5 15 7 28 3
12 -3 34 0 49 5 22 9 27 17 27 43 0 23 -3 29 -9 19 -5 -8 -16 -11 -26 -7 -14
5 -16 2 -11 -18 3 -14 2 -27 -4 -31 -5 -3 -12 7 -16 22 -9 44 -12 50 -13 26
-1 -13 -6 -23 -12 -23 -5 0 -8 4 -5 9 8 13 -57 21 -72 8 -26 -21 -22 2 5 27
l28 26 -26 0 c-14 0 -30 -5 -36 -11 -8 -8 -13 -8 -17 0 -5 7 -15 6 -31 -5 -13
-9 -29 -13 -35 -9 -5 3 -10 1 -10 -5 0 -10 -37 -5 -50 7 -9 8 26 22 47 18 13
-2 24 3 27 11 3 9 11 12 17 8 6 -3 15 -1 19 7 7 10 14 10 34 1 18 -8 26 -8 26
-1 0 7 11 9 25 7 14 -3 28 -1 31 3 3 5 0 9 -6 9 -8 0 -8 6 0 21 14 26 7 35
-12 16 -25 -26 -69 -45 -67 -29 4 26 -2 31 -28 21 -35 -13 -34 -13 -44 3 -6 9
-9 10 -9 1 0 -7 -7 -10 -16 -6 -15 5 -15 7 0 15 14 8 15 13 5 24 -6 8 -13 31
-14 52 -1 20 -3 45 -4 55 0 9 -7 17 -15 17 -8 0 -16 5 -18 12 -3 7 -40 13
-109 15 -58 1 -105 7 -107 13 -2 5 -12 10 -23 10 -10 0 -19 5 -19 12 0 6 -6 4
-13 -6 -12 -17 -16 -17 -71 -1 -42 12 -61 14 -69 6 -18 -18 -37 -13 -30 7 4 9
11 20 16 23 5 4 6 12 3 18 -8 12 -64 12 -166 1z m-630 -104 c0 -12 -5 -7 -19
24 -11 24 -11 24 3 6 9 -11 16 -24 16 -30z m40 -82 c12 -25 19 -48 17 -51 -4
-4 -47 81 -47 93 0 15 13 -3 30 -42z m100 21 c0 -8 4 -15 9 -15 5 0 11 -7 15
-15 10 -28 -13 -15 -29 15 -9 17 -11 30 -5 30 5 0 10 -7 10 -15z m-350 -20 c0
-8 -2 -15 -4 -15 -2 0 -6 7 -10 15 -3 8 -1 15 4 15 6 0 10 -7 10 -15z m395
-55 c3 -5 1 -10 -4 -10 -6 0 -11 5 -11 10 0 6 2 10 4 10 3 0 8 -4 11 -10z
m185 -30 c0 -5 -2 -10 -4 -10 -3 0 -8 5 -11 10 -3 6 -1 10 4 10 6 0 11 -4 11
-10z m690 0 c0 -5 -4 -10 -10 -10 -5 0 -10 5 -10 10 0 6 5 10 10 10 6 0 10 -4
10 -10z m-1350 -16 c0 -8 -4 -12 -10 -9 -5 3 -10 10 -10 16 0 5 5 9 10 9 6 0
10 -7 10 -16z m380 6 c0 -5 -4 -10 -10 -10 -5 0 -10 5 -10 10 0 6 5 10 10 10
6 0 10 -4 10 -10z m115 0 c3 -5 1 -10 -4 -10 -6 0 -11 5 -11 10 0 6 2 10 4 10
3 0 8 -4 11 -10z m1006 -54 c-17 -18 -19 -25 -9 -29 7 -3 -1 -6 -18 -6 -18 -1
-37 6 -45 16 -13 15 -11 16 19 10 26 -5 34 -3 39 11 7 19 25 34 32 26 2 -2 -6
-15 -18 -28z m-1890 -197 c-5 -13 -10 -19 -10 -12 -1 15 10 45 15 40 3 -2 0
-15 -5 -28z m1129 21 c0 -5 -2 -10 -4 -10 -3 0 -8 5 -11 10 -3 6 -1 10 4 10 6
0 11 -4 11 -10z m747 -36 c-3 -3 -12 -4 -19 -1 -8 3 -5 6 6 6 11 1 17 -2 13
-5z m71 -1 c-10 -2 -26 -2 -35 0 -10 3 -2 5 17 5 19 0 27 -2 18 -5z m117 -13
c-3 -5 -10 -10 -16 -10 -5 0 -9 5 -9 10 0 6 7 10 16 10 8 0 12 -4 9 -10z m60
0 c3 -5 -3 -10 -14 -10 -12 0 -21 5 -21 10 0 6 6 10 14 10 8 0 18 -4 21 -10z
m-462 -12 c-4 -7 -7 -26 -6 -43 1 -19 0 -22 -3 -8 -5 22 -46 39 -66 27 -7 -5
-8 -2 -3 5 4 7 18 11 31 8 13 -2 23 -1 22 2 -1 15 3 21 18 21 10 0 12 -5 7
-12z m32 2 c3 -5 1 -10 -4 -10 -6 0 -11 5 -11 10 0 6 2 10 4 10 3 0 8 -4 11
-10z m80 -25 c0 -11 6 -30 13 -43 16 -28 6 -48 -13 -28 -8 8 -20 17 -27 19
-11 4 -10 7 0 15 18 12 4 42 -20 42 -11 0 -16 5 -13 11 4 5 19 9 33 7 19 -2
27 -9 27 -23z m-45 -24 c0 -14 -6 -19 -20 -18 -12 1 -20 8 -20 19 0 11 7 18
20 18 13 0 20 -7 20 -19z m-605 -1 c3 -5 -1 -10 -10 -10 -9 0 -13 5 -10 10 3
6 8 10 10 10 2 0 7 -4 10 -10z m421 -17 c17 -23 18 -36 2 -30 -7 2 -13 8 -13
13 0 5 -4 15 -8 22 -12 19 4 14 19 -5z m-256 -24 c0 -5 -7 -6 -15 -3 -8 4 -15
13 -15 21 0 13 3 13 15 3 8 -7 15 -16 15 -21z m838 9 c-2 -13 -7 -23 -13 -23
-5 0 -11 10 -13 23 -2 15 2 22 13 22 11 0 15 -7 13 -22z m-683 2 c3 -5 -2 -10
-13 -10 -10 0 -24 -11 -30 -25 -12 -27 -32 -34 -32 -12 0 18 38 57 55 57 8 0
17 -4 20 -10z m-85 -10 c0 -5 -4 -10 -9 -10 -6 0 -13 5 -16 10 -3 6 1 10 9 10
9 0 16 -4 16 -10z m274 -33 c-21 -12 -29 -2 -13 16 10 11 16 12 21 4 4 -7 0
-16 -8 -20z m661 23 c-3 -5 -10 -10 -16 -10 -5 0 -9 5 -9 10 0 6 7 10 16 10 8
0 12 -4 9 -10z m-845 -20 c0 -5 -4 -10 -10 -10 -5 0 -10 5 -10 10 0 6 5 10 10
10 6 0 10 -4 10 -10z m694 -29 c12 -13 14 -21 6 -26 -7 -4 -14 2 -17 14 -3 11
-9 18 -14 15 -5 -3 -9 0 -9 5 0 17 15 13 34 -8z m-1554 -71 c0 -16 -5 -30 -11
-30 -6 0 -9 6 -6 14 3 8 1 16 -5 18 -6 2 -8 10 -4 16 13 22 26 13 26 -18z m80
9 c0 -5 -9 -9 -20 -9 -11 0 -20 -5 -20 -11 0 -8 -5 -8 -15 1 -20 16 -19 28 3
32 23 5 52 -2 52 -13z m1541 -1 c18 -20 23 -28 16 -28 -2 0 -14 11 -27 25 -13
14 -20 25 -15 25 4 0 16 -10 26 -22z m-1601 -57 c0 -6 -4 -13 -10 -16 -5 -3
-10 1 -10 9 0 9 5 16 10 16 6 0 10 -4 10 -9z m-303 -184 c-11 -24 -27 -37 -27
-21 0 7 34 53 37 50 2 -1 -3 -14 -10 -29z m-1127 -117 c0 -5 -5 -10 -11 -10
-5 0 -7 5 -4 10 3 6 8 10 11 10 2 0 4 -4 4 -10z m3317 -12 c-3 -8 -6 -5 -6 6
-1 11 2 17 5 13 3 -3 4 -12 1 -19z m-2260 -80 c-3 -8 -6 -5 -6 6 -1 11 2 17 5
13 3 -3 4 -12 1 -19z m-40 -160 c-3 -7 -5 -2 -5 12 0 14 2 19 5 13 2 -7 2 -19
0 -25z m2604 -41 c-10 -9 -11 -8 -5 6 3 10 9 15 12 12 3 -3 0 -11 -7 -18z
m-2975 5 c20 -13 34 -50 34 -93 0 -23 5 -70 12 -105 l11 -64 -36 -35 -36 -35
0 97 c0 54 -1 108 -3 121 -2 23 -17 31 -19 10 -1 -21 -18 25 -18 51 -1 14 6
33 16 43 18 20 23 21 39 10z m3035 -47 c15 5 19 1 20 -17 1 -17 3 -18 6 -5 2
9 9 15 14 12 15 -10 10 -33 -8 -38 -14 -4 -12 -5 5 -6 20 -1 22 -6 22 -56 0
-56 -6 -65 -29 -42 -10 10 -11 9 -6 -5 4 -10 16 -18 26 -18 10 0 19 -6 19 -14
0 -9 -7 -12 -20 -9 -14 4 -20 0 -20 -11 0 -9 -7 -16 -16 -16 -11 0 -14 6 -9
21 5 15 4 19 -5 14 -8 -5 -11 0 -9 16 3 31 -11 80 -28 97 -11 11 -13 11 -13
-3 0 -9 -4 -14 -10 -10 -6 3 -6 15 0 29 5 13 7 32 6 41 -1 10 4 26 13 34 15
15 16 15 19 -2 3 -13 9 -16 23 -12z m-71 -65 c0 -5 -4 -10 -10 -10 -5 0 -10 5
-10 10 0 6 5 10 10 10 6 0 10 -4 10 -10z m130 -170 c0 -5 -5 -10 -11 -10 -5 0
-7 5 -4 10 3 6 8 10 11 10 2 0 4 -4 4 -10z m-3053 -332 c-3 -8 -6 -5 -6 6 -1
11 2 17 5 13 3 -3 4 -12 1 -19z m2810 -90 c-3 -8 -6 -5 -6 6 -1 11 2 17 5 13
3 -3 4 -12 1 -19z m-2977 -107 c0 -5 3 -17 7 -27 4 -11 3 -15 -4 -11 -14 9
-24 47 -12 47 5 0 9 -4 9 -9z m-10 -55 c0 -3 -4 -8 -10 -11 -5 -3 -10 -1 -10
4 0 6 5 11 10 11 6 0 10 -2 10 -4z m80 -66 c0 -5 -2 -10 -4 -10 -3 0 -8 5 -11
10 -3 6 -1 10 4 10 6 0 11 -4 11 -10z m40 -20 c0 -5 -2 -10 -4 -10 -3 0 -8 5
-11 10 -3 6 -1 10 4 10 6 0 11 -4 11 -10z m-67 -14 c9 -7 17 -18 17 -24 0 -6
5 -12 11 -14 6 -2 9 -13 6 -23 -5 -19 -5 -19 -12 3 -4 12 -18 25 -31 28 -15 4
-24 14 -24 25 0 22 8 23 33 5z m97 -10 c0 -3 -4 -8 -10 -11 -5 -3 -10 -1 -10
4 0 6 5 11 10 11 6 0 10 -2 10 -4z m-110 -30 c0 -11 -19 -15 -25 -6 -3 5 1 10
9 10 9 0 16 -2 16 -4z m83 -16 c-3 -12 -8 -19 -11 -16 -5 6 5 36 12 36 2 0 2
-9 -1 -20z m-63 -24 c0 -3 -4 -8 -10 -11 -5 -3 -10 -1 -10 4 0 6 5 11 10 11 6
0 10 -2 10 -4z m83 -36 c3 -11 1 -18 -4 -14 -5 3 -9 12 -9 20 0 20 7 17 13 -6z
m80 -44 c4 -10 1 -13 -9 -9 -15 6 -19 23 -5 23 5 0 11 -7 14 -14z m-43 -26 c0
-13 -5 -18 -14 -14 -8 3 -12 12 -9 20 8 21 23 17 23 -6z m20 -60 c0 -4 -6 -10
-14 -13 -10 -4 -12 0 -9 14 5 18 23 18 23 -1z m2688 -140 c-5 -85 -16 -182
-24 -215 -19 -76 -153 -405 -165 -405 -3 0 -14 -20 -24 -44 -10 -25 -23 -43
-27 -40 -5 3 -5 11 0 17 10 14 35 92 35 111 0 7 7 13 15 12 9 -1 16 10 19 27
3 22 1 27 -9 21 -9 -5 -8 -2 2 12 22 30 24 30 17 9 -7 -20 -7 -20 8 0 9 11 13
25 10 33 -2 7 2 15 10 18 8 4 13 9 11 13 -3 4 6 34 20 66 28 70 29 75 9 75 -8
0 -15 5 -15 10 0 6 5 10 11 10 5 0 8 4 5 8 -2 4 -1 14 5 22 7 13 9 12 9 -2 0
-10 5 -18 11 -18 6 0 9 6 6 14 -3 8 -1 17 6 20 7 2 2 5 -10 5 -25 1 -41 20
-25 30 5 3 11 15 13 25 4 19 5 19 22 2 16 -17 17 -16 17 23 0 22 -6 46 -14 53
-11 11 -10 18 10 43 22 29 22 33 10 103 -12 70 -12 72 7 66 14 -4 17 -3 12 6
-4 7 -2 16 6 21 7 4 14 7 14 6 1 -1 -3 -72 -7 -157z m-2878 94 c0 -8 -5 -12
-10 -9 -6 4 -8 11 -5 16 9 14 15 11 15 -7z m240 -34 c0 -5 -4 -10 -9 -10 -6 0
-13 5 -16 10 -3 6 1 10 9 10 9 0 16 -4 16 -10z m174 -138 c25 -77 40 -147 50
-234 9 -80 -9 -53 -27 38 -9 48 -19 89 -22 92 -17 17 -14 -22 10 -132 18 -81
25 -138 21 -163 -17 -108 -18 -121 -7 -142 16 -30 29 -26 24 7 -4 21 -2 24 6
12 6 -8 11 -27 11 -42 0 -16 4 -28 9 -28 5 0 18 -15 30 -32 11 -18 28 -42 38
-53 41 -46 84 -116 81 -133 -4 -19 -62 -51 -95 -52 -24 0 -74 59 -162 195 -49
74 -129 231 -145 283 -4 12 -12 19 -18 16 -7 -4 -8 -2 -4 4 4 7 -5 49 -19 94
-15 46 -28 95 -30 109 -2 14 -11 63 -19 109 -9 45 -16 87 -16 92 0 6 26 7 68
4 37 -3 86 -6 110 -6 25 0 40 -5 37 -10 -3 -6 -1 -10 4 -10 6 0 11 -4 11 -9 0
-5 -16 -9 -36 -9 -51 0 -66 -26 -17 -30 20 -2 47 -1 61 3 25 6 27 23 6 94 -5
16 -4 22 4 17 6 -3 22 -41 36 -84z m2343 -294 c-3 -8 -6 -5 -6 6 -1 11 2 17 5
13 3 -3 4 -12 1 -19z m-2203 -180 c6 -4 7 -10 3 -14 -9 -9 -36 25 -36 46 0 10
3 9 11 -5 6 -11 16 -23 22 -27z m169 -18 c3 -11 1 -18 -4 -14 -5 3 -9 12 -9
20 0 20 7 17 13 -6z m32 10 c3 -5 1 -10 -4 -10 -6 0 -11 5 -11 10 0 6 2 10 4
10 3 0 8 -4 11 -10z m-288 -16 c-3 -3 -12 -4 -19 -1 -8 3 -5 6 6 6 11 1 17 -2
13 -5z m108 -24 c3 -5 1 -10 -4 -10 -6 0 -11 5 -11 10 0 6 2 10 4 10 3 0 8 -4
11 -10z m113 -40 c-2 -7 -10 1 -17 16 -12 27 -11 28 4 12 10 -9 16 -21 13 -28z
m66 14 c11 -28 6 -39 -9 -20 -8 11 -15 23 -15 28 0 14 18 9 24 -8z m1596 -4
c0 -11 8 -29 18 -39 44 -48 62 -74 62 -90 0 -9 7 -27 16 -39 9 -13 14 -26 11
-28 -10 -10 -57 28 -57 46 0 10 -3 26 -6 35 -5 13 -8 14 -15 3 -6 -9 -9 -7 -9
9 0 12 -9 38 -20 58 -22 39 -26 65 -10 65 6 0 10 -9 10 -20z m-1653 -52 c-3
-8 -6 -5 -6 6 -1 11 2 17 5 13 3 -3 4 -12 1 -19z m-80 -20 c-3 -8 -6 -5 -6 6
-1 11 2 17 5 13 3 -3 4 -12 1 -19z m1640 0 c-3 -8 -6 -5 -6 6 -1 11 2 17 5 13
3 -3 4 -12 1 -19z m130 -87 c14 -23 5 -35 -14 -20 -14 12 -18 39 -5 39 4 0 13
-9 19 -19z m-87 -6 c7 -9 8 -15 2 -15 -5 0 -12 7 -16 15 -3 8 -4 15 -2 15 2 0
9 -7 16 -15z m245 -25 c3 -5 1 -10 -4 -10 -6 0 -11 5 -11 10 0 6 2 10 4 10 3
0 8 -4 11 -10z m-210 -37 c3 -13 2 -23 -3 -23 -11 0 -22 24 -22 48 0 21 15 5
25 -25z m129 2 c3 -8 1 -15 -3 -15 -5 0 -11 7 -15 15 -3 8 -1 15 3 15 5 0 11
-7 15 -15z m-99 -65 c3 -5 1 -10 -4 -10 -6 0 -11 5 -11 10 0 6 2 10 4 10 3 0
8 -4 11 -10z m159 -11 c-3 -5 -10 -7 -15 -3 -5 3 -7 10 -3 15 3 5 10 7 15 3 5
-3 7 -10 3 -15z m-114 -24 c0 -8 4 -15 9 -15 5 0 11 -8 15 -17 3 -10 9 -24 12
-30 3 -7 1 -13 -5 -13 -6 0 -20 19 -31 42 -23 48 -23 48 -10 48 6 0 10 -7 10
-15z m155 -14 c3 -5 1 -12 -5 -16 -5 -3 -10 1 -10 9 0 18 6 21 15 7z m-1952
-36 c-3 -9 -8 -14 -10 -11 -3 3 -2 9 2 15 9 16 15 13 8 -4z m1763 -44 c-4 -6
-13 -11 -19 -11 -8 0 -7 3 2 9 8 5 10 14 6 22 -6 11 -5 11 5 2 7 -6 9 -16 6
-22z m-1715 -65 c5 -6 9 -19 8 -30 0 -16 -2 -17 -7 -6 -4 8 -20 34 -35 57 -16
23 -26 47 -22 53 4 7 15 -4 27 -27 11 -21 24 -42 29 -47z m1209 -3 c0 -6 5
-13 11 -15 6 -2 9 -13 7 -23 -3 -16 -8 -12 -23 20 -10 22 -27 50 -38 62 -11
12 -16 27 -12 34 8 12 55 -54 55 -78z m344 72 c3 -8 1 -15 -4 -15 -6 0 -10 7
-10 15 0 8 2 15 4 15 2 0 6 -7 10 -15z m-1640 -11 c3 -8 2 -12 -4 -9 -6 3 -10
10 -10 16 0 14 7 11 14 -7z m-341 -36 c-11 -13 -23 -30 -26 -39 -3 -9 -22 -20
-42 -23 -20 -4 -43 -10 -51 -13 -9 -3 -14 0 -12 8 4 19 30 38 43 32 7 -2 17 3
24 11 7 8 18 13 24 10 7 -2 18 10 25 28 9 25 15 29 24 20 9 -9 7 -17 -9 -34z
m2322 22 c3 -5 1 -10 -4 -10 -6 0 -11 5 -11 10 0 6 2 10 4 10 3 0 8 -4 11 -10z
m-970 -21 c11 -16 1 -19 -13 -3 -7 8 -8 14 -3 14 5 0 13 -5 16 -11z m807 -36
l-10 -28 -9 25 c-7 16 -6 28 1 36 18 20 29 -1 18 -33z m128 -18 c0 -5 -10 0
-21 12 -13 12 -18 26 -14 33 6 9 12 6 21 -11 7 -13 13 -28 14 -34z m-90 0 c0
-8 -4 -15 -10 -15 -5 0 -10 7 -10 15 0 8 5 15 10 15 6 0 10 -7 10 -15z m-2340
-20 c0 -9 -6 -12 -15 -9 -8 4 -12 10 -9 15 8 14 24 10 24 -6z m1646 -10 c9 -8
14 -22 12 -31 -2 -11 -8 -6 -21 15 -19 33 -15 40 9 16z m674 -10 c0 -8 -4 -15
-10 -15 -5 0 -10 7 -10 15 0 8 5 15 10 15 6 0 10 -7 10 -15z m-2500 -5 c0 -5
-4 -10 -10 -10 -5 0 -10 5 -10 10 0 6 5 10 10 10 6 0 10 -4 10 -10z m80 -20
c6 -11 8 -20 6 -20 -3 0 -10 9 -16 20 -6 11 -8 20 -6 20 3 0 10 -9 16 -20z
m-87 -27 c3 -5 -1 -14 -9 -21 -12 -11 -14 -9 -14 8 0 20 14 27 23 13z m67 -28
c0 -8 5 -15 12 -15 6 0 9 -2 6 -5 -3 -3 -13 -3 -22 1 -17 7 -22 34 -6 34 6 0
10 -7 10 -15z m50 -6 c0 -5 -4 -9 -10 -9 -5 0 -10 7 -10 16 0 8 5 12 10 9 6
-3 10 -10 10 -16z m108 -4 c-3 -3 -9 2 -12 12 -6 14 -5 15 5 6 7 -7 10 -15 7
-18z m2203 -27 c5 -9 5 -19 1 -22 -8 -5 -42 55 -42 72 1 8 26 -24 41 -50z
m-2541 12 c0 -5 -5 -10 -11 -10 -5 0 -7 5 -4 10 3 6 8 10 11 10 2 0 4 -4 4
-10z m44 -5 c-4 -8 -10 -12 -15 -9 -11 6 -2 24 11 24 5 0 7 -7 4 -15z m156
-25 c0 -5 -4 -10 -10 -10 -5 0 -10 5 -10 10 0 6 5 10 10 10 6 0 10 -4 10 -10z
m-170 -10 c0 -5 -4 -10 -10 -10 -5 0 -10 5 -10 10 0 6 5 10 10 10 6 0 10 -4
10 -10z m234 -5 c3 -8 1 -15 -4 -15 -6 0 -10 7 -10 15 0 8 2 15 4 15 2 0 6 -7
10 -15z m-33 -28 c-1 -12 -15 -9 -19 4 -3 6 1 10 8 8 6 -3 11 -8 11 -12z
m2319 -8 c0 -5 -4 -9 -10 -9 -5 0 -10 7 -10 16 0 8 5 12 10 9 6 -3 10 -10 10
-16z m-2241 -31 c12 -15 11 -18 -3 -18 -10 0 -16 8 -16 22 0 12 1 19 3 17 1
-2 9 -12 16 -21z m2201 -4 c13 -34 13 -39 -4 -25 -17 14 -28 51 -15 51 5 0 14
-12 19 -26z m-2310 8 c0 -13 -23 -32 -39 -32 -11 0 -10 4 5 19 20 21 34 26 34
13z m1330 -25 c0 -5 -4 -5 -10 -2 -5 3 -10 14 -10 23 0 15 2 15 10 2 5 -8 10
-19 10 -23z m-983 1 c-3 -8 -6 -5 -6 6 -1 11 2 17 5 13 3 -3 4 -12 1 -19z
m-317 -18 c-24 -34 -33 -38 -23 -12 9 21 25 41 36 42 5 0 -1 -13 -13 -30z
m1310 -22 c0 -19 -2 -20 -10 -8 -13 19 -13 30 0 30 6 0 10 -10 10 -22z m-1070
2 c0 -5 -4 -10 -10 -10 -5 0 -10 5 -10 10 0 6 5 10 10 10 6 0 10 -4 10 -10z
m-223 -37 c-3 -10 -5 -4 -5 12 0 17 2 24 5 18 2 -7 2 -21 0 -30z m108 8 c-18
-35 -31 -45 -40 -31 -3 5 1 10 9 10 9 0 16 8 16 19 0 16 8 24 28 30 1 1 -4
-12 -13 -28z m75 3 c0 -8 -5 -12 -10 -9 -6 4 -8 11 -5 16 9 14 15 11 15 -7z
m50 -4 c0 -5 -4 -10 -9 -10 -6 0 -13 5 -16 10 -3 6 1 10 9 10 9 0 16 -4 16
-10z m1080 -24 c0 -3 -4 -8 -10 -11 -5 -3 -10 -1 -10 4 0 6 5 11 10 11 6 0 10
-2 10 -4z m-1030 -39 c-9 -7 -14 -21 -12 -32 2 -16 1 -17 -7 -5 -9 13 -11 13
-11 -2 0 -10 -7 -18 -15 -18 -22 0 -19 27 4 40 11 5 23 19 26 31 5 16 10 18
18 9 9 -8 8 -14 -3 -23z m667 -44 c-3 -10 -5 -4 -5 12 0 17 2 24 5 18 2 -7 2
-21 0 -30z m394 -6 c-8 -8 -11 -5 -11 9 0 27 14 41 18 19 2 -9 -1 -22 -7 -28z
m-1163 21 c-6 -18 -28 -21 -28 -4 0 9 7 16 16 16 9 0 14 -5 12 -12z m152 -23
c0 -17 -36 -39 -50 -30 -11 7 19 43 38 44 6 1 12 -6 12 -14z m-119 -31 c5 -15
7 -30 3 -33 -4 -3 -9 0 -11 7 -3 6 -11 12 -19 12 -8 0 -14 9 -14 20 0 29 29
25 41 -6z m739 -15 c0 -6 -4 -7 -10 -4 -5 3 -10 11 -10 16 0 6 5 7 10 4 6 -3
10 -11 10 -16z m-306 -42 c5 -27 4 -37 -3 -32 -6 3 -11 22 -11 42 0 44 5 41
14 -10z m330 18 c-3 -8 2 -22 11 -31 32 -32 47 -63 40 -84 -3 -11 -12 -20 -19
-20 -17 0 -39 26 -32 38 3 5 -4 23 -15 40 -22 37 -24 53 -7 70 14 14 29 6 22
-13z m-69 -35 c-5 -8 -11 -8 -17 -2 -6 6 -7 16 -3 22 5 8 11 8 17 2 6 -6 7
-16 3 -22z m-674 -3 c-13 -13 -26 -3 -16 12 3 6 11 8 17 5 6 -4 6 -10 -1 -17z
m-51 -12 c10 -12 10 -15 -4 -15 -9 0 -16 7 -16 15 0 8 2 15 4 15 2 0 9 -7 16
-15z m196 1 c8 -8 14 -22 14 -30 0 -9 4 -16 8 -16 5 0 9 -13 10 -29 0 -22 -3
-28 -14 -24 -8 3 -14 9 -14 15 0 5 -11 26 -25 46 -14 20 -25 40 -25 44 0 13
31 9 46 -6z m111 -8 c-3 -8 -6 -5 -6 6 -1 11 2 17 5 13 3 -3 4 -12 1 -19z
m234 -5 c13 -16 12 -17 -3 -4 -17 13 -22 21 -14 21 2 0 10 -8 17 -17z m-571
-23 c0 -5 -5 -10 -11 -10 -5 0 -7 5 -4 10 3 6 8 10 11 10 2 0 4 -4 4 -10z
m795 0 c3 -5 1 -10 -4 -10 -6 0 -11 5 -11 10 0 6 2 10 4 10 3 0 8 -4 11 -10z
m-268 -32 c-3 -8 -6 -5 -6 6 -1 11 2 17 5 13 3 -3 4 -12 1 -19z m277 -7 c8
-13 -4 -42 -15 -35 -12 7 -12 44 0 44 6 0 12 -4 15 -9z m-388 -42 c3 -6 2 -15
-4 -21 -6 -6 -11 -2 -15 11 -5 22 7 29 19 10z"/>
<path d="M4000 3153 c0 -5 7 -16 14 -26 11 -14 15 -15 19 -4 3 8 0 20 -6 26
-13 13 -27 15 -27 4z"/>
<path d="M1090 1790 c0 -5 12 -10 26 -10 14 0 23 4 19 10 -3 6 -15 10 -26 10
-10 0 -19 -4 -19 -10z"/>
<path d="M1275 1747 c-4 -10 -5 -21 -1 -24 10 -10 18 4 13 24 -4 17 -4 17 -12
0z"/>
<path d="M2785 4650 c3 -5 8 -10 11 -10 2 0 4 5 4 10 0 6 -5 10 -11 10 -5 0
-7 -4 -4 -10z"/>
<path d="M3021 4648 c-41 -22 -34 -33 19 -34 34 0 49 3 47 10 -3 8 16 11 60
10 35 -1 66 3 69 7 3 5 -10 9 -28 9 -18 1 -58 3 -88 6 -34 3 -64 0 -79 -8z"/>
<path d="M580 4630 c0 -5 5 -10 10 -10 6 0 10 5 10 10 0 6 -4 10 -10 10 -5 0
-10 -4 -10 -10z"/>
<path d="M3140 4611 c0 -5 5 -13 10 -16 6 -3 10 -2 10 4 0 5 -4 13 -10 16 -5
3 -10 2 -10 -4z"/>
<path d="M3351 4615 c-1 -5 -17 -11 -37 -13 -40 -2 -82 -32 -45 -32 31 0 32
-14 5 -43 -29 -32 -30 -43 -4 -50 17 -4 19 -1 14 19 -4 13 -2 24 4 24 5 0 15
14 21 30 5 17 14 30 18 31 4 0 25 2 46 5 30 3 37 0 37 -14 1 -15 2 -15 15 2
20 26 20 53 1 37 -11 -9 -15 -9 -18 0 -3 9 -9 9 -25 1 -16 -9 -23 -9 -26 1 -3
6 -6 8 -6 2z"/>
<path d="M530 4590 c0 -5 5 -10 10 -10 6 0 10 5 10 10 0 6 -4 10 -10 10 -5 0
-10 -4 -10 -10z"/>
<path d="M3122 4551 c2 -7 7 -12 11 -12 12 1 9 15 -3 20 -7 2 -11 -2 -8 -8z"/>
<path d="M3173 4553 c-19 -7 -16 -15 17 -53 50 -58 52 -60 46 -76 -3 -8 1 -14
9 -14 8 0 15 4 15 9 0 5 3 18 6 28 4 13 3 15 -4 4 -7 -10 -13 -8 -26 10 -9 13
-16 29 -16 36 0 7 -9 21 -19 30 -11 9 -18 20 -15 25 6 9 5 9 -13 1z"/>
<path d="M3245 4550 c-3 -5 -1 -10 4 -10 6 0 11 5 11 10 0 6 -2 10 -4 10 -3 0
-8 -4 -11 -10z"/>
<path d="M3326 4551 c-4 -7 -5 -15 -2 -18 9 -9 19 4 14 18 -4 11 -6 11 -12 0z"/>
<path d="M3360 4529 c0 -5 5 -7 10 -4 6 3 10 8 10 11 0 2 -4 4 -10 4 -5 0 -10
-5 -10 -11z"/>
<path d="M3307 4493 c-4 -3 -7 -11 -7 -17 0 -6 5 -5 12 2 6 6 9 14 7 17 -3 3
-9 2 -12 -2z"/>
<path d="M3330 4435 c-7 -8 -8 -15 -2 -15 5 0 15 7 22 15 7 8 8 15 2 15 -5 0
-15 -7 -22 -15z"/>
<path d="M3188 4433 c7 -3 16 -2 19 1 4 3 -2 6 -13 5 -11 0 -14 -3 -6 -6z"/>
<path d="M3341 4394 c0 -11 3 -14 6 -6 3 7 2 16 -1 19 -3 4 -6 -2 -5 -13z"/>
<path d="M3307 4320 c-21 -25 -21 -27 -2 -27 8 0 13 3 10 5 -3 3 0 11 7 19 6
7 9 15 6 18 -2 2 -12 -5 -21 -15z"/>
<path d="M160 4310 c0 -13 20 -13 40 0 12 8 9 10 -12 10 -16 0 -28 -4 -28 -10z"/>
<path d="M223 4307 c-3 -5 17 -7 44 -6 27 1 54 -1 61 -5 10 -6 52 9 52 19 0 9
-151 1 -157 -8z"/>
<path d="M388 4295 c-6 -14 -14 -25 -18 -25 -4 0 -10 -13 -13 -28 -6 -29 -27
-36 -55 -19 -8 6 -10 3 -5 -9 5 -13 2 -15 -15 -9 -12 3 -22 2 -22 -3 0 -6 23
-13 51 -17 28 -4 47 -10 42 -14 -12 -7 -24 -51 -15 -51 9 0 92 144 92 158 0 7
-7 12 -15 12 -9 0 -12 6 -9 15 10 25 -6 17 -18 -10z"/>
<path d="M3430 4291 c0 -5 9 -7 20 -4 11 3 20 7 20 9 0 2 -9 4 -20 4 -11 0
-20 -4 -20 -9z"/>
<path d="M221 4273 c-17 -9 -31 -21 -31 -27 0 -6 -9 -17 -20 -24 -13 -8 -20
-8 -20 -1 0 5 -4 7 -10 4 -14 -9 -12 -22 3 -22 6 0 20 -4 30 -8 10 -4 17 -3
17 4 0 6 7 8 15 4 9 -3 22 2 29 12 7 10 17 15 23 12 11 -7 46 30 38 42 -10 17
-44 18 -74 4z"/>
<path d="M1 4144 c0 -11 3 -14 6 -6 3 7 2 16 -1 19 -3 4 -6 -2 -5 -13z"/>
<path d="M655 4130 c-3 -5 -1 -10 4 -10 6 0 11 5 11 10 0 6 -2 10 -4 10 -3 0
-8 -4 -11 -10z"/>
<path d="M680 4106 c0 -15 18 -31 26 -23 7 7 -7 37 -17 37 -5 0 -9 -6 -9 -14z"/>
<path d="M3465 4110 c3 -5 8 -10 11 -10 2 0 4 5 4 10 0 6 -5 10 -11 10 -5 0
-7 -4 -4 -10z"/>
<path d="M3416 4063 c-3 -8 -10 -11 -16 -8 -5 3 -10 -1 -10 -11 0 -18 17 -16
85 10 34 13 37 15 15 17 -14 1 -35 3 -47 4 -12 1 -24 -4 -27 -12z"/>
<path d="M3555 4020 c-13 -6 -15 -9 -5 -9 8 0 22 4 30 9 18 12 2 12 -25 0z"/>
<path d="M3135 4010 c3 -5 13 -10 21 -10 8 0 14 -5 14 -11 0 -5 5 -7 11 -3 8
4 3 12 -12 20 -29 16 -42 18 -34 4z"/>
<path d="M780 4000 c0 -6 7 -10 15 -10 8 0 15 2 15 4 0 2 -7 6 -15 10 -8 3
-15 1 -15 -4z"/>
<path d="M2080 4002 c0 -5 7 -13 16 -16 10 -4 14 -1 12 6 -5 15 -28 23 -28 10z"/>
<path d="M2172 3983 c4 -24 58 -31 58 -8 0 11 -5 15 -15 12 -8 -4 -17 -2 -20
3 -10 17 -27 11 -23 -7z"/>
<path d="M3070 3985 c0 -8 5 -15 11 -15 5 0 8 -4 5 -8 -3 -5 8 -19 24 -31 25
-18 30 -19 30 -6 0 9 -4 13 -10 10 -6 -4 -10 6 -10 23 0 18 -6 32 -16 36 -25
10 -34 7 -34 -9z"/>
<path d="M3197 3964 c-9 -12 -17 -28 -17 -34 0 -6 -4 -9 -9 -6 -5 3 -11 0 -14
-8 -4 -9 4 -15 24 -18 25 -4 29 -1 29 19 0 17 6 23 23 23 16 0 18 3 8 9 -7 5
-11 13 -7 19 13 21 -20 18 -37 -4z"/>
<path d="M3548 3973 c7 -3 16 -2 19 1 4 3 -2 6 -13 5 -11 0 -14 -3 -6 -6z"/>
<path d="M2106 3957 c3 -10 9 -15 12 -12 3 3 0 11 -7 18 -10 9 -11 8 -5 -6z"/>
<path d="M3227 3917 c-3 -8 1 -14 9 -14 8 0 14 6 14 14 0 7 -4 13 -9 13 -5 0
-11 -6 -14 -13z"/>
<path d="M3550 3920 c0 -5 5 -10 11 -10 5 0 7 5 4 10 -3 6 -8 10 -11 10 -2 0
-4 -4 -4 -10z"/>
<path d="M3225 3880 c3 -5 13 -10 21 -10 8 0 12 5 9 10 -3 6 -13 10 -21 10 -8
0 -12 -4 -9 -10z"/>
<path d="M1900 3870 c0 -5 5 -10 11 -10 5 0 7 5 4 10 -3 6 -8 10 -11 10 -2 0
-4 -4 -4 -10z"/>
<path d="M3348 3813 c7 -3 16 -2 19 1 4 3 -2 6 -13 5 -11 0 -14 -3 -6 -6z"/>
<path d="M3555 3630 c3 -5 8 -10 11 -10 2 0 4 5 4 10 0 6 -5 10 -11 10 -5 0
-7 -4 -4 -10z"/>
<path d="M3893 3587 c2 -48 8 -61 58 -128 30 -41 65 -91 78 -111 12 -21 25
-38 28 -38 14 0 -12 59 -47 108 -22 29 -47 77 -56 105 -15 46 -51 117 -59 117
-2 0 -3 -24 -2 -53z"/>
<path d="M3683 3360 c-1 -11 3 -20 8 -20 6 0 8 4 5 9 -9 14 20 21 34 8 10 -9
11 -9 8 3 -3 8 -16 16 -29 18 -19 2 -25 -2 -26 -18z"/>
<path d="M3740 3280 c18 -36 40 -46 40 -19 0 6 -4 8 -10 4 -5 -3 -16 8 -25 25
-8 16 -18 30 -20 30 -3 0 4 -18 15 -40z"/>
<path d="M3670 3285 c0 -9 7 -24 16 -33 15 -14 15 -17 -1 -28 -18 -14 -13 -34
10 -34 21 0 26 28 11 64 -16 38 -36 55 -36 31z"/>
<path d="M3696 3085 c4 -8 10 -15 15 -15 4 0 6 7 3 15 -4 8 -10 15 -15 15 -4
0 -6 -7 -3 -15z"/>
<path d="M3721 3055 c1 -19 18 -51 18 -35 0 8 -4 22 -9 30 -5 8 -9 11 -9 5z"/>
<path d="M1740 2931 c0 -4 -11 -6 -25 -3 -14 2 -40 -3 -59 -12 -19 -9 -41 -16
-50 -16 -20 0 -21 -19 -2 -26 24 -9 7 -32 -27 -39 -61 -12 -71 -17 -57 -25 7
-5 22 -3 32 3 14 9 20 9 27 -1 6 -10 17 -11 42 -5 29 7 171 8 235 1 19 -2 31
-28 12 -28 -4 0 -8 -4 -8 -10 0 -5 9 -10 20 -10 13 0 20 7 20 20 0 11 5 20 10
20 6 0 10 -9 10 -20 0 -18 4 -20 43 -14 64 11 72 10 72 -4 0 -10 -21 -15 -81
-18 -44 -2 -93 -8 -108 -14 -15 -5 -41 -10 -57 -10 -45 0 -136 -47 -167 -86
-15 -19 -34 -34 -42 -34 -9 0 -11 -3 -5 -8 6 -4 11 -13 12 -19 4 -16 -14 -17
-19 -2 -2 6 -10 -1 -18 -16 -15 -28 -6 -55 21 -63 11 -3 11 -1 1 5 -9 7 -4 19
20 48 81 97 136 136 210 149 60 11 51 -8 -17 -32 -57 -21 -183 -114 -193 -143
-7 -18 27 -20 62 -4 40 19 72 13 99 -19 10 -11 16 -15 12 -7 -6 11 1 12 36 6
43 -7 63 -21 53 -37 -3 -4 0 -8 5 -8 6 0 11 5 11 12 0 9 3 9 12 0 9 -9 9 -18
-1 -38 -6 -15 -9 -29 -6 -32 3 -3 5 0 5 6 0 7 9 12 20 12 11 0 20 -4 20 -10 0
-5 19 -10 41 -10 35 0 39 -2 30 -14 -10 -11 -8 -17 9 -29 13 -9 17 -17 11 -22
-17 -10 -13 -52 5 -59 8 -3 28 1 44 9 16 8 36 15 45 15 9 0 14 4 11 9 -4 5 -1
11 5 13 7 2 9 13 4 28 l-7 23 -16 -26 c-18 -30 -37 -35 -46 -12 -3 8 -1 15 5
15 5 0 18 18 28 40 l18 41 17 -25 c9 -14 16 -33 16 -41 0 -10 7 -15 17 -13 25
5 28 29 4 35 -21 5 -24 28 -4 28 15 0 43 32 35 40 -4 4 6 5 22 1 19 -5 32 -3
38 6 6 9 8 6 6 -11 -2 -14 -10 -25 -20 -27 -26 -3 -47 -29 -45 -53 1 -21 2
-21 25 4 13 14 21 29 18 34 -4 5 3 7 14 4 11 -3 20 -1 20 4 0 5 11 15 25 21
24 11 25 13 10 35 -8 13 -12 28 -8 32 5 5 -4 1 -19 -8 -19 -12 -29 -13 -34 -6
-4 6 -1 15 6 19 6 4 13 19 13 34 2 26 8 32 20 19 4 -3 2 -12 -4 -20 -9 -10 -8
-13 2 -13 14 0 43 -36 44 -54 0 -5 5 -11 10 -13 7 -2 9 12 7 37 -3 29 -8 40
-19 38 -9 -2 -17 5 -19 15 -2 14 2 17 19 12 15 -4 18 -3 9 3 -7 5 -11 15 -9
23 2 8 2 11 0 7 -3 -5 -11 -8 -19 -8 -8 0 -14 3 -15 8 0 4 -2 17 -3 29 -4 32
-48 93 -68 93 -10 0 -18 7 -18 15 0 8 9 15 19 15 11 0 23 5 27 12 5 8 0 9 -14
6 -12 -4 -22 -2 -22 3 0 5 14 9 30 9 17 0 30 5 30 13 0 6 7 -1 15 -17 8 -15
15 -36 15 -45 0 -12 2 -13 9 -3 5 9 -2 43 -17 90 -14 42 -27 71 -30 64 -4 -13
-22 -6 -22 9 0 5 12 9 26 9 14 0 23 -4 19 -10 -3 -6 1 -13 9 -16 9 -3 13 -11
9 -17 -3 -5 -2 -7 4 -4 6 4 15 -5 21 -18 7 -14 18 -25 27 -25 10 0 15 -10 15
-27 l1 -28 14 26 c8 14 11 36 8 49 -6 22 -7 23 -14 4 -7 -18 -8 -17 -8 4 -1
12 4 22 9 22 6 0 10 5 10 12 0 6 -3 8 -7 5 -3 -4 -12 -2 -19 4 -9 8 -11 5 -7
-9 2 -11 0 -23 -6 -26 -6 -4 -11 0 -11 8 0 9 -6 16 -14 16 -7 0 -16 9 -19 20
-5 19 -12 20 -86 18 -44 -2 -81 -6 -81 -10 0 -5 -7 -8 -15 -8 -8 0 -15 4 -15
9 0 5 -15 11 -34 13 -19 2 -32 0 -29 -5 3 -5 -9 -6 -28 -1 -19 4 -59 8 -89 9
-30 1 -63 5 -73 9 -9 5 -31 6 -48 4 -20 -3 -33 0 -36 9 -6 14 -33 18 -33 4z
m-30 -15 c0 -3 -4 -8 -10 -11 -5 -3 -10 -1 -10 4 0 6 5 11 10 11 6 0 10 -2 10
-4z m127 -12 c-3 -3 -12 -4 -19 -1 -8 3 -5 6 6 6 11 1 17 -2 13 -5z m243 -144
c0 -5 7 -10 15 -10 8 0 15 4 15 10 0 5 18 9 40 7 39 -2 50 -10 30 -22 -6 -4
-8 -11 -5 -16 4 -5 1 -9 -4 -9 -6 0 -11 7 -11 15 0 16 -15 21 -23 8 -2 -5 -2
-2 -1 5 2 6 -1 12 -6 12 -6 0 -10 -4 -10 -10 0 -11 -30 -13 -54 -4 -9 3 -13
10 -10 15 7 12 24 11 24 -1z m-264 -196 c10 -14 30 -31 43 -38 13 -7 20 -16
15 -19 -6 -3 -40 9 -77 26 -55 26 -66 34 -56 45 21 20 55 14 75 -14z m411 -45
c-14 -8 -22 -8 -30 0 -8 8 -3 11 19 11 25 -1 27 -2 11 -11z m-299 -17 c2 -7
-3 -12 -12 -12 -9 0 -16 7 -16 16 0 17 22 14 28 -4z m69 12 c-3 -3 -12 -4 -19
-1 -8 3 -5 6 6 6 11 1 17 -2 13 -5z m188 -24 c-3 -5 -13 -10 -21 -10 -8 0 -14
5 -14 10 0 6 9 10 21 10 11 0 17 -4 14 -10z m9 -36 c-21 -15 -44 -34 -51 -43
-11 -14 -12 -14 -13 6 0 17 11 28 43 42 58 28 67 26 21 -5z m-234 -30 c0 -32
-6 -30 -18 5 -9 25 -8 29 4 24 8 -3 14 -16 14 -29z m130 23 c0 -2 -9 -21 -19
-43 -15 -31 -21 -35 -26 -22 -4 10 1 27 12 42 15 22 33 34 33 23z m200 -7 c0
-5 -4 -10 -10 -10 -5 0 -10 5 -10 10 0 6 5 10 10 10 6 0 10 -4 10 -10z"/>
<path d="M2900 2932 c0 -5 -11 -15 -25 -22 -19 -10 -25 -21 -25 -47 0 -18 5
-33 10 -33 6 0 10 15 10 34 0 35 19 62 21 29 0 -10 2 -26 4 -36 3 -16 -30 -44
-47 -39 -5 1 -8 -7 -8 -18 0 -11 -7 -20 -15 -20 -14 0 -14 4 -2 28 9 16 11 37
6 52 l-7 25 -1 -26 c-1 -14 -8 -40 -17 -58 -10 -20 -14 -44 -10 -61 3 -16 2
-32 -3 -34 -5 -3 -11 -26 -14 -52 -5 -44 -21 -69 -39 -58 -4 3 -8 0 -8 -5 0
-6 4 -11 9 -11 10 0 44 -91 36 -98 -11 -11 -35 23 -35 49 0 20 -5 29 -16 29
-12 0 -14 -7 -9 -32 4 -18 11 -34 16 -36 5 -2 9 -19 9 -38 0 -21 4 -33 10 -29
6 3 10 16 10 28 1 22 1 22 15 3 15 -20 15 -20 15 0 0 15 7 11 36 -21 21 -22
33 -34 29 -26 -6 11 -3 13 11 8 63 -19 64 -19 64 -3 0 20 49 34 60 16 6 -10 8
-10 12 0 3 10 11 9 35 -4 18 -9 38 -16 45 -16 7 0 20 -5 28 -10 13 -8 12 -11
-5 -24 -16 -12 -17 -17 -8 -27 10 -10 15 -7 23 18 11 29 13 30 58 25 45 -5 66
-17 56 -34 -3 -4 1 -8 10 -8 8 0 16 -6 19 -12 3 -9 11 -4 23 12 24 32 27 100
6 119 -14 13 -15 11 -9 -21 3 -20 3 -39 0 -41 -8 -9 -33 4 -27 14 3 5 0 9 -5
9 -6 0 -11 -4 -11 -9 0 -5 -8 -7 -19 -4 -13 3 -17 11 -14 24 3 11 0 19 -6 19
-7 0 -10 -4 -7 -8 2 -4 -6 -9 -18 -10 -14 -1 -23 4 -23 13 0 11 13 14 53 12
49 -2 54 0 59 22 4 14 9 21 13 15 4 -5 27 -10 52 -11 25 -1 37 1 27 3 -21 7
-13 24 12 24 25 0 47 -26 29 -33 -10 -4 -10 -6 0 -6 17 -1 15 -30 -3 -37 -17
-7 -18 -13 -7 -32 14 -22 42 -2 42 29 0 19 5 29 15 29 8 0 15 5 15 11 0 6 -9
9 -20 6 -11 -3 -18 -1 -15 3 3 5 -2 16 -11 24 -14 15 -13 16 10 16 13 0 36 -4
50 -10 17 -6 26 -6 26 0 0 6 -5 10 -10 10 -6 0 -9 3 -8 8 3 8 -8 24 -69 90
-42 46 -42 47 -20 55 21 8 20 9 -13 24 -19 8 -42 16 -50 18 -51 8 -80 19 -80
31 0 8 -6 14 -12 15 -7 0 0 5 16 11 22 8 30 7 36 -3 5 -7 6 -17 4 -21 -3 -4 0
-8 6 -8 6 0 13 7 16 15 3 8 14 17 25 20 10 4 19 15 19 26 0 10 5 19 10 19 6 0
10 -4 10 -8 0 -4 8 -8 18 -9 9 -1 28 -4 42 -8 19 -5 21 -4 10 4 -27 19 0 25
31 7 23 -13 34 -15 42 -7 8 8 7 11 -4 11 -7 0 -27 7 -44 16 -19 10 -31 11 -33
5 -5 -15 -23 -14 -42 4 -9 8 -31 18 -50 21 -30 7 -33 5 -25 -12 17 -40 18 -67
4 -62 -8 3 -13 16 -12 30 1 18 -5 29 -23 37 -15 7 -23 7 -19 1 3 -5 -1 -10 -9
-10 -8 0 -18 10 -22 23 -7 22 -21 37 -37 37 -5 0 -5 -4 -2 -10 3 -5 1 -10 -4
-10 -6 0 -11 5 -11 10 0 6 -5 10 -11 10 -6 0 -9 -7 -5 -15 3 -8 1 -15 -4 -15
-6 0 -10 5 -10 11 0 6 -12 9 -27 7 -16 -2 -27 -8 -25 -15 1 -7 -5 -13 -13 -13
-8 0 -15 5 -15 10 0 6 -5 10 -11 10 -5 0 -7 -4 -4 -10 3 -6 -4 -10 -17 -9 -13
0 -17 3 -10 6 6 2 12 9 12 14 0 4 -6 6 -14 3 -8 -3 -18 1 -22 8 -6 9 -10 4
-14 -16 -3 -16 -11 -31 -19 -34 -11 -4 -13 2 -8 27 6 27 4 31 -16 31 -13 0
-28 -5 -35 -12 -9 -9 -12 -9 -12 0 0 7 4 12 9 12 5 0 11 7 15 15 4 10 -1 15
-14 15 -11 0 -20 -4 -20 -8z m44 -67 c3 -8 1 -15 -4 -15 -6 0 -10 7 -10 15 0
8 2 15 4 15 2 0 6 -7 10 -15z m-114 -105 c0 -5 -5 -10 -11 -10 -5 0 -7 5 -4
10 3 6 8 10 11 10 2 0 4 -4 4 -10z m300 -5 c0 -8 -4 -15 -9 -15 -13 0 -22 16
-14 24 11 11 23 6 23 -9z m60 0 c0 -17 -2 -18 -24 -9 -23 9 -20 24 4 24 11 0
20 -7 20 -15z m-105 -5 c-3 -5 -16 -10 -28 -9 -21 0 -21 1 -2 9 28 12 37 12
30 0z m239 -62 c-4 -6 2 -8 15 -3 15 4 21 2 21 -9 0 -13 -5 -13 -45 1 -47 16
-54 34 -10 26 13 -3 22 -10 19 -15z m43 -90 c4 -7 8 -19 9 -26 3 -14 -63 -45
-77 -36 -5 3 -9 0 -9 -6 0 -6 -5 -8 -11 -4 -7 4 -7 9 -2 13 5 3 18 21 28 39
20 33 48 42 62 20z m-200 -85 c3 -7 -3 -9 -18 -6 -18 5 -20 3 -15 -14 6 -17 1
-21 -24 -25 -16 -3 -30 0 -30 5 0 5 -11 7 -24 5 -14 -3 -31 -1 -38 3 -9 6 -6
9 10 9 23 0 32 19 10 21 -7 0 -4 4 7 9 28 13 118 7 122 -7z m86 0 c-7 -2 -19
-2 -25 0 -7 3 -2 5 12 5 14 0 19 -2 13 -5z m37 -138 c0 -8 -3 -15 -6 -15 -3 0
-12 7 -20 15 -14 13 -13 15 5 15 12 0 21 -6 21 -15z"/>
<path d="M3310 2570 c0 -5 5 -10 10 -10 6 0 10 5 10 10 0 6 -4 10 -10 10 -5 0
-10 -4 -10 -10z"/>
<path d="M2668 2905 c-4 -4 -5 -21 -2 -39 4 -24 3 -27 -5 -16 -9 13 -11 13
-11 -2 0 -10 -6 -18 -12 -18 -15 -1 20 -23 40 -26 6 -1 12 4 12 12 0 8 10 14
25 14 16 0 25 -6 25 -16 0 -8 -4 -12 -10 -9 -5 3 -10 2 -10 -4 0 -5 -3 -16 -6
-24 -4 -10 4 -16 26 -19 19 -3 29 -1 27 6 -3 6 -10 10 -16 9 -6 -2 -11 4 -11
12 0 8 4 15 8 15 4 0 6 16 4 35 -4 30 -7 33 -22 25 -14 -8 -19 -5 -24 13 -5
17 -8 19 -15 8 -7 -11 -10 -9 -13 8 -1 13 -6 20 -10 16z"/>
<path d="M2429 2840 c-31 -27 -32 -30 -12 -30 12 0 27 -8 33 -17 10 -16 11
-15 6 7 -3 14 1 31 10 41 28 31 -3 30 -37 -1z"/>
<path d="M2774 2828 c-11 -17 6 -22 22 -7 13 14 13 16 -1 16 -9 0 -18 -4 -21
-9z"/>
<path d="M2672 2770 c-16 -26 -5 -55 14 -39 15 12 19 45 6 53 -4 2 -13 -4 -20
-14z"/>
<path d="M2330 2765 c0 -8 7 -15 15 -15 9 0 12 6 9 15 -4 8 -10 15 -15 15 -5
0 -9 -7 -9 -15z"/>
<path d="M2405 2770 c-3 -5 -2 -10 4 -10 5 0 13 5 16 10 3 6 2 10 -4 10 -5 0
-13 -4 -16 -10z"/>
<path d="M4015 2750 c-8 -13 -1 -24 14 -19 6 3 7 10 2 18 -6 10 -10 10 -16 1z"/>
<path d="M2260 2717 c0 -19 27 -53 36 -44 4 4 3 7 -3 7 -6 0 -8 11 -5 25 3 18
0 25 -12 25 -9 0 -16 -6 -16 -13z"/>
<path d="M2627 2710 c3 -11 9 -20 15 -20 5 0 4 9 -2 20 -6 11 -12 20 -14 20
-2 0 -2 -9 1 -20z"/>
<path d="M2708 2711 c-11 -13 -13 -23 -7 -27 15 -9 32 10 27 30 -3 15 -5 14
-20 -3z"/>
<path d="M3790 2716 c0 -2 8 -10 18 -17 15 -13 16 -12 3 4 -13 16 -21 21 -21
13z"/>
<path d="M2746 2695 c-3 -9 0 -15 9 -15 8 0 15 7 15 15 0 8 -4 15 -9 15 -5 0
-11 -7 -15 -15z"/>
<path d="M4081 2694 c0 -11 3 -14 6 -6 3 7 2 16 -1 19 -3 4 -6 -2 -5 -13z"/>
<path d="M2320 2690 c0 -5 7 -10 16 -10 8 0 12 5 9 10 -3 6 -10 10 -16 10 -5
0 -9 -4 -9 -10z"/>
<path d="M2660 2680 c0 -6 7 -10 15 -10 8 0 15 2 15 4 0 2 -7 6 -15 10 -8 3
-15 1 -15 -4z"/>
<path d="M3420 2683 c1 -19 16 -31 29 -24 7 5 10 14 7 20 -8 12 -36 15 -36 4z"/>
<path d="M2348 2639 c2 -16 8 -29 12 -29 9 0 1 48 -9 55 -4 2 -5 -9 -3 -26z"/>
<path d="M2720 2635 c0 -14 5 -25 11 -25 5 0 7 5 4 10 -3 6 -2 10 3 10 5 0 9
7 9 15 0 8 -6 15 -14 15 -7 0 -13 -11 -13 -25z"/>
<path d="M3503 2635 c0 -13 2 -24 6 -23 21 2 31 -4 31 -22 0 -11 5 -20 11 -20
7 0 8 7 4 18 -4 9 -9 24 -12 32 -2 9 -12 21 -22 27 -16 10 -18 8 -18 -12z"/>
<path d="M4080 2650 c0 -5 5 -10 10 -10 6 0 10 5 10 10 0 6 -4 10 -10 10 -5 0
-10 -4 -10 -10z"/>
<path d="M2296 2641 c-4 -5 -2 -12 3 -15 5 -4 12 -2 15 3 4 5 2 12 -3 15 -5 4
-12 2 -15 -3z"/>
<path d="M3462 2600 c0 -14 2 -19 5 -12 2 6 2 18 0 25 -3 6 -5 1 -5 -13z"/>
<path d="M3954 2589 c-3 -6 0 -18 9 -26 13 -13 14 -12 10 11 -6 29 -9 31 -19
15z"/>
<path d="M3527 2544 c17 -26 33 -32 33 -11 0 6 -11 17 -25 23 -23 11 -24 11
-8 -12z"/>
<path d="M2356 2532 c-7 -12 5 -52 15 -52 5 0 9 14 9 30 0 28 -13 40 -24 22z"/>
<path d="M4086 2503 c-6 -14 -5 -15 5 -6 7 7 10 15 7 18 -3 3 -9 -2 -12 -12z"/>
<path d="M170 2483 c0 -17 19 -35 29 -29 8 5 7 11 -3 22 -16 15 -26 18 -26 7z"/>
<path d="M230 2470 c14 -27 70 -29 64 -2 -4 11 -17 18 -40 20 -32 2 -34 0 -24
-18z"/>
<path d="M300 2482 c0 -17 39 -44 55 -39 19 8 20 27 0 27 -8 0 -15 5 -15 10 0
6 -9 10 -20 10 -11 0 -20 -4 -20 -8z"/>
<path d="M383 2470 c2 -24 22 -27 31 -4 9 23 8 24 -13 24 -14 0 -19 -6 -18
-20z"/>
<path d="M780 2480 c-8 -5 -41 -7 -74 -5 -50 5 -58 3 -53 -10 4 -8 2 -15 -3
-15 -6 0 -10 7 -10 15 0 19 -60 21 -78 3 -7 -7 -12 -8 -12 -2 0 5 -18 10 -40
10 -31 1 -40 -2 -40 -15 0 -13 11 -17 49 -19 28 -1 61 2 75 8 13 5 26 5 28 0
3 -9 33 -13 103 -11 43 1 52 5 62 26 6 14 10 25 10 25 -1 0 -9 -5 -17 -10z"/>
<path d="M430 2465 c0 -8 5 -15 10 -15 6 0 10 7 10 15 0 8 -4 15 -10 15 -5 0
-10 -7 -10 -15z"/>
<path d="M2785 2422 c-10 -11 -22 -19 -27 -16 -4 3 -8 3 -8 -1 0 -3 12 -10 27
-16 19 -7 28 -6 34 2 5 8 10 5 18 -8 5 -11 7 -23 4 -27 -3 -3 -1 -6 5 -6 15 0
16 27 2 43 -6 7 -17 21 -24 31 -13 19 -14 19 -31 -2z"/>
<path d="M3330 2429 c0 -5 5 -7 10 -4 6 3 10 8 10 11 0 2 -4 4 -10 4 -5 0 -10
-5 -10 -11z"/>
<path d="M4178 2419 c15 -6 30 -5 40 1 13 7 8 9 -23 9 -35 0 -37 -1 -17 -10z"/>
<path d="M4250 2420 c0 -5 18 -10 40 -10 22 0 40 5 40 10 0 6 -18 10 -40 10
-22 0 -40 -4 -40 -10z"/>
<path d="M4440 2416 c0 -2 7 -6 15 -10 8 -3 15 -1 15 4 0 6 -7 10 -15 10 -8 0
-15 -2 -15 -4z"/>
<path d="M3330 2390 c0 -13 5 -18 15 -14 12 5 13 10 4 20 -15 19 -19 18 -19
-6z"/>
<path d="M2913 2373 c-18 -7 -16 -43 2 -43 9 0 15 9 15 25 0 14 -1 25 -2 24
-2 0 -9 -3 -15 -6z"/>
<path d="M2970 2366 c0 -17 14 -29 23 -20 8 8 -3 34 -14 34 -5 0 -9 -6 -9 -14z"/>
<path d="M4178 2366 c-10 -7 -18 -16 -18 -19 0 -12 28 4 34 19 6 17 6 17 -16
0z"/>
<path d="M4240 2369 c0 -5 5 -7 10 -4 6 3 10 8 10 11 0 2 -4 4 -10 4 -5 0 -10
-5 -10 -11z"/>
<path d="M4356 2371 c-4 -5 -2 -20 3 -33 9 -21 10 -21 10 10 1 32 -3 39 -13
23z"/>
<path d="M4288 2363 c-10 -2 -18 -9 -18 -15 0 -6 3 -8 7 -5 3 4 13 1 21 -6 13
-9 14 -9 8 1 -4 6 -2 12 3 12 6 0 11 5 11 10 0 10 -3 11 -32 3z"/>
<path d="M3130 2350 c0 -13 11 -13 30 0 12 8 11 10 -7 10 -13 0 -23 -4 -23
-10z"/>
<path d="M3197 2346 c-5 -12 1 -20 18 -28 14 -6 25 -16 25 -21 0 -6 2 -8 5 -5
9 8 -6 38 -16 32 -5 -3 -13 5 -17 17 -7 19 -10 20 -15 5z"/>
<path d="M3020 2330 c0 -5 5 -10 10 -10 6 0 10 5 10 10 0 6 -4 10 -10 10 -5 0
-10 -4 -10 -10z"/>
<path d="M4319 2323 c-13 -16 -12 -17 4 -4 9 7 17 15 17 17 0 8 -8 3 -21 -13z"/>
<path d="M4515 2330 c3 -5 8 -10 11 -10 2 0 4 5 4 10 0 6 -5 10 -11 10 -5 0
-7 -4 -4 -10z"/>
<path d="M3070 2314 c0 -8 5 -12 10 -9 6 4 8 11 5 16 -9 14 -15 11 -15 -7z"/>
<path d="M3130 2320 c0 -5 11 -17 24 -26 14 -8 26 -25 28 -37 2 -13 6 -18 10
-11 4 6 -5 28 -20 47 -27 36 -42 46 -42 27z"/>
<path d="M4411 2302 c-7 -14 -18 -17 -44 -14 -19 2 -38 -1 -41 -7 -4 -6 0 -11
11 -12 10 -1 35 -2 56 -3 21 -2 40 1 43 6 3 4 -3 8 -12 8 -16 0 -16 1 1 20 10
11 13 20 7 20 -6 0 -16 -8 -21 -18z"/>
<path d="M3000 2306 c0 -2 8 -10 18 -17 15 -13 16 -12 3 4 -13 16 -21 21 -21
13z"/>
<path d="M4531 2303 c0 -5 4 -17 8 -28 7 -17 8 -17 13 8 4 19 1 27 -8 27 -8 0
-14 -3 -13 -7z"/>
<path d="M3270 2290 c0 -5 5 -10 10 -10 6 0 10 5 10 10 0 6 -4 10 -10 10 -5 0
-10 -4 -10 -10z"/>
<path d="M4600 2290 c0 -5 5 -10 11 -10 5 0 7 5 4 10 -3 6 -8 10 -11 10 -2 0
-4 -4 -4 -10z"/>
<path d="M4270 2280 c0 -5 5 -10 10 -10 6 0 10 5 10 10 0 6 -4 10 -10 10 -5 0
-10 -4 -10 -10z"/>
<path d="M3040 2270 c0 -5 5 -10 10 -10 6 0 10 5 10 10 0 6 -4 10 -10 10 -5 0
-10 -4 -10 -10z"/>
<path d="M4472 2273 c-15 -6 -6 -23 14 -23 8 0 14 7 14 15 0 15 -6 17 -28 8z"/>
<path d="M4625 2270 c-3 -5 1 -10 10 -10 9 0 13 5 10 10 -3 6 -8 10 -10 10 -2
0 -7 -4 -10 -10z"/>
<path d="M3260 2249 c0 -15 -5 -19 -15 -15 -8 3 -15 0 -15 -7 0 -7 9 -13 20
-14 16 -1 20 4 20 28 0 16 -2 29 -5 29 -3 0 -5 -9 -5 -21z"/>
<path d="M4571 2230 c0 -8 4 -22 9 -30 12 -18 12 -2 0 25 -6 13 -9 15 -9 5z"/>
<path d="M4600 2175 c0 -8 5 -15 10 -15 6 0 10 7 10 15 0 8 -4 15 -10 15 -5 0
-10 -7 -10 -15z"/>
<path d="M4710 2175 c0 -8 2 -15 4 -15 2 0 6 7 10 15 3 8 1 15 -4 15 -6 0 -10
-7 -10 -15z"/>
<path d="M4798 2173 c-10 -2 -18 -9 -18 -14 0 -5 -6 -9 -14 -9 -15 0 -30 -29
-20 -39 3 -3 10 2 16 12 7 13 17 17 31 13 18 -4 22 -1 22 19 0 14 0 24 0 24 0
-1 -8 -3 -17 -6z"/>
<path d="M4510 2118 c0 -19 2 -20 10 -8 13 19 13 30 0 30 -5 0 -10 -10 -10
-22z"/>
<path d="M4600 2110 c0 -5 5 -10 11 -10 5 0 7 5 4 10 -3 6 -8 10 -11 10 -2 0
-4 -4 -4 -10z"/>
<path d="M155 2100 c3 -5 2 -10 -3 -10 -5 0 -12 -11 -14 -25 -3 -13 -2 -22 3
-20 4 3 16 -8 25 -25 18 -30 34 -39 34 -20 0 6 -7 13 -15 17 -10 3 -15 16 -14
32 3 42 0 61 -12 61 -5 0 -7 -4 -4 -10z"/>
<path d="M4887 2089 c-3 -13 -1 -19 6 -16 15 5 22 37 9 37 -5 0 -12 -9 -15
-21z"/>
<path d="M266 2092 c6 -4 16 -16 22 -27 11 -19 11 -18 12 8 0 21 -5 27 -22 27
-13 0 -18 -3 -12 -8z"/>
<path d="M350 2091 c-31 -7 -35 -44 -5 -49 16 -3 17 -1 5 7 -8 6 -10 11 -5 12
6 0 27 2 48 5 28 4 37 1 37 -11 0 -8 5 -15 11 -15 5 0 8 4 4 9 -3 6 2 14 11
19 44 24 -34 41 -106 23z"/>
<path d="M480 2080 c14 -27 73 -28 68 -2 -2 12 -14 18 -41 19 -34 2 -36 1 -27
-17z"/>
<path d="M4675 2090 c3 -5 8 -10 11 -10 2 0 4 5 4 10 0 6 -5 10 -11 10 -5 0
-7 -4 -4 -10z"/>
<path d="M4710 2085 c0 -8 7 -15 15 -15 9 0 12 6 9 15 -4 8 -10 15 -15 15 -5
0 -9 -7 -9 -15z"/>
<path d="M4566 2073 c-5 -13 -9 -13 -23 -2 -15 13 -16 11 -9 -15 4 -17 16 -42
27 -57 20 -29 25 -49 10 -49 -4 0 -4 -22 2 -50 10 -49 29 -66 41 -34 3 8 10
13 15 10 5 -3 11 4 15 16 5 22 6 22 20 3 9 -11 16 -26 16 -32 0 -7 4 -13 9
-13 5 0 15 -17 22 -37 6 -21 19 -46 29 -55 16 -15 18 -13 23 34 4 28 2 58 -3
67 -7 11 -8 7 -4 -16 4 -18 4 -33 1 -33 -12 0 -47 70 -48 96 0 16 -3 24 -6 17
-9 -24 -43 9 -43 43 0 18 -8 38 -20 49 -17 15 -20 16 -20 3 0 -17 -26 -32 -40
-23 -4 3 -10 16 -12 30 -4 20 0 29 20 39 24 12 24 13 4 18 -13 4 -23 0 -26 -9z
m74 -85 c0 -7 -4 -19 -9 -27 -8 -13 -12 -13 -26 -1 -16 13 -16 15 1 27 22 16
34 17 34 1z m-3 -66 c-10 -10 -17 -24 -17 -30 0 -17 -15 -15 -30 3 -10 13 -9
15 9 15 12 0 21 6 21 15 0 8 7 15 17 15 15 0 15 -1 0 -18z"/>
<path d="M4770 2078 c0 -7 5 -20 10 -28 8 -12 10 -11 10 7 0 12 -4 25 -10 28
-5 3 -10 0 -10 -7z"/>
<path d="M220 2062 c0 -14 6 -22 16 -22 14 0 15 3 3 18 -7 9 -15 19 -16 21 -2
2 -3 -5 -3 -17z"/>
<path d="M750 2070 c0 -5 4 -10 9 -10 6 0 13 5 16 10 3 6 -1 10 -9 10 -9 0
-16 -4 -16 -10z"/>
<path d="M4648 2063 c7 -3 16 -2 19 1 4 3 -2 6 -13 5 -11 0 -14 -3 -6 -6z"/>
<path d="M4746 2055 c-3 -8 -1 -15 4 -15 6 0 10 7 10 15 0 8 -2 15 -4 15 -2 0
-6 -7 -10 -15z"/>
<path d="M4670 2035 c0 -8 5 -15 10 -15 6 0 10 7 10 15 0 8 -4 15 -10 15 -5 0
-10 -7 -10 -15z"/>
<path d="M4910 2038 c0 -7 7 -22 15 -32 12 -16 15 -17 15 -4 0 24 -11 48 -21
48 -5 0 -9 -6 -9 -12z"/>
<path d="M301 2024 c0 -11 3 -14 6 -6 3 7 2 16 -1 19 -3 4 -6 -2 -5 -13z"/>
<path d="M4585 2030 c4 -6 11 -8 16 -5 14 9 11 15 -7 15 -8 0 -12 -5 -9 -10z"/>
<path d="M4712 2024 c-7 -8 -12 -20 -9 -27 2 -7 9 -2 16 11 15 28 11 36 -7 16z"/>
<path d="M118 2004 c-5 -4 -8 -16 -8 -28 0 -14 3 -17 11 -9 6 6 9 19 7 28 -1
9 -6 13 -10 9z"/>
<path d="M4747 1979 c-3 -12 -10 -18 -16 -14 -13 8 -13 -32 0 -60 l9 -20 -1
20 c-2 35 1 46 10 41 5 -3 11 8 13 24 5 34 -7 41 -15 9z"/>
<path d="M4940 1963 c0 -11 5 -24 11 -30 6 -6 15 -30 20 -53 5 -23 21 -58 34
-78 14 -20 25 -44 25 -54 0 -9 5 -20 10 -23 15 -9 12 26 -4 55 -29 50 -45 86
-61 137 -17 55 -35 78 -35 46z"/>
<path d="M213 1930 c6 -45 30 -75 51 -62 7 4 4 8 -7 10 -13 3 -16 9 -12 23 4
12 -2 29 -16 47 l-22 27 6 -45z"/>
<path d="M330 1935 c0 -8 4 -15 10 -15 5 0 7 7 4 15 -4 8 -8 15 -10 15 -2 0
-4 -7 -4 -15z"/>
<path d="M141 1913 c7 -10 15 -20 16 -22 2 -2 3 3 3 11 0 9 -7 19 -16 22 -15
6 -15 4 -3 -11z"/>
<path d="M360 1910 c0 -6 -4 -9 -9 -6 -5 3 -11 -3 -14 -14 -3 -10 0 -21 7 -23
6 -2 11 -19 12 -38 1 -25 6 -35 20 -38 14 -3 16 0 7 10 -16 20 -28 89 -15 89
6 0 13 -6 16 -12 2 -7 3 -2 2 11 -3 25 -26 43 -26 21z"/>
<path d="M4870 1889 c0 -5 5 -7 10 -4 6 3 10 8 10 11 0 2 -4 4 -10 4 -5 0 -10
-5 -10 -11z"/>
<path d="M145 1872 c6 -4 18 -23 28 -42 10 -21 17 -28 17 -17 0 23 -29 67 -44
67 -7 0 -8 -3 -1 -8z"/>
<path d="M611 1854 c0 -11 3 -14 6 -6 3 7 2 16 -1 19 -3 4 -6 -2 -5 -13z"/>
<path d="M390 1850 c0 -6 7 -10 15 -10 8 0 15 2 15 4 0 2 -7 6 -15 10 -8 3
-15 1 -15 -4z"/>
<path d="M835 1850 c3 -5 8 -10 11 -10 2 0 4 5 4 10 0 6 -5 10 -11 10 -5 0 -7
-4 -4 -10z"/>
<path d="M628 1830 c-2 -8 -27 -12 -76 -11 -57 0 -72 -3 -72 -14 0 -17 35 -20
45 -5 5 7 11 8 18 1 18 -14 130 -17 135 -3 2 7 -3 12 -12 12 -8 0 -19 7 -24
16 -7 12 -11 13 -14 4z"/>
<path d="M4600 1832 c0 -18 12 -42 21 -42 14 0 10 26 -6 40 -9 8 -15 8 -15 2z"/>
<path d="M4669 1807 c11 -19 18 -37 14 -40 -3 -4 1 -7 10 -7 23 0 21 13 -3 35
-11 10 -20 24 -20 32 0 7 -5 13 -11 13 -6 0 -1 -15 10 -33z"/>
<path d="M400 1822 c0 -15 24 -32 47 -32 22 0 31 14 16 23 -18 10 -63 17 -63
9z"/>
<path d="M820 1820 c0 -5 -16 -10 -36 -10 -24 0 -34 -4 -31 -12 6 -19 184 -22
190 -3 4 9 -8 13 -46 13 -29 0 -53 5 -55 11 -5 14 -22 15 -22 1z"/>
<path d="M4854 1815 c-16 -42 39 -101 71 -75 6 5 15 7 18 3 4 -3 7 1 7 11 0 9
-6 19 -14 22 -8 3 -17 16 -20 30 -5 17 -13 24 -32 24 -13 0 -27 -7 -30 -15z
m52 -40 c1 -8 -2 -15 -7 -15 -5 0 -9 10 -9 22 0 23 12 17 16 -7z"/>
<path d="M700 1794 c0 -9 7 -14 17 -12 25 5 28 28 4 28 -12 0 -21 -6 -21 -16z"/>
<path d="M4706 1738 c5 -14 1 -18 -19 -18 -13 0 -30 -7 -37 -15 -11 -13 -8
-15 16 -15 16 -1 109 -3 207 -6 114 -4 177 -2 177 4 0 16 -19 19 -145 21 -144
2 -174 7 -192 29 -12 16 -13 16 -7 0z"/>
<path d="M4610 1730 c0 -5 5 -10 10 -10 6 0 10 5 10 10 0 6 -4 10 -10 10 -5 0
-10 -4 -10 -10z"/>
<path d="M3649 958 c-24 -61 -48 -123 -54 -137 -5 -14 -22 -46 -37 -71 -24
-40 -28 -60 -10 -60 4 0 25 35 46 78 62 122 65 127 76 125 5 -2 10 4 10 13 0
9 -5 12 -12 8 -8 -5 -9 -2 -3 12 4 10 11 35 16 54 4 19 11 47 15 63 13 55 -4
24 -47 -85z"/>
<path d="M3765 1030 c3 -5 13 -10 21 -10 8 0 14 5 14 10 0 6 -9 10 -21 10 -11
0 -17 -4 -14 -10z"/>
<path d="M3837 1005 c18 -14 39 -46 49 -73 10 -26 26 -60 37 -76 16 -23 17
-30 6 -37 -8 -5 -9 -9 -4 -9 6 0 2 -5 -7 -11 -10 -5 -18 -21 -18 -34 0 -14 -4
-25 -10 -25 -5 0 -13 -16 -19 -35 -14 -53 -48 -95 -77 -95 -25 0 -30 -9 -15
-26 14 -14 24 -74 13 -74 -5 0 -12 7 -16 15 -8 22 -26 18 -26 -5 0 -11 -6 -20
-12 -20 -9 0 -13 16 -13 45 0 35 4 46 17 51 13 4 16 10 10 22 -5 10 -3 58 4
112 15 108 20 252 10 269 -15 24 -21 8 -20 -56 1 -38 -3 -73 -8 -79 -11 -15
-14 -62 -5 -94 7 -24 7 -24 -4 -2 -13 24 -39 30 -39 8 0 -7 -9 -16 -20 -19
-22 -6 -27 -36 -8 -55 8 -8 8 -12 1 -12 -6 0 -16 7 -23 15 -35 42 -74 -8 -65
-86 3 -30 2 -48 -1 -41 -11 23 -26 12 -20 -15 5 -17 3 -29 -6 -35 -11 -6 -10
-10 2 -17 8 -5 18 -7 23 -4 6 3 8 -5 5 -20 -3 -15 0 -28 5 -30 6 -2 7 -9 3
-15 -10 -17 -26 -5 -26 19 0 10 -5 19 -10 19 -6 0 -9 -6 -8 -12 2 -7 -2 -12
-9 -11 -26 5 -27 -71 -1 -88 5 -4 8 -17 6 -30 l-4 -24 -14 28 c-18 36 -25 34
-39 -13 -10 -34 -10 -46 3 -72 21 -40 20 -59 0 -30 l-16 23 -17 -23 c-31 -40
-31 -68 -4 -150 l26 -78 43 0 c24 0 44 3 44 6 0 4 -8 21 -19 38 -10 17 -21 49
-24 71 l-6 39 19 -32 c11 -18 20 -41 20 -52 0 -11 4 -20 9 -20 5 0 11 -10 13
-22 3 -22 8 -23 91 -24 67 -1 87 2 87 12 0 18 15 18 30 -1 7 -8 22 -15 34 -15
15 0 17 3 8 8 -9 6 -10 16 -4 33 l9 24 17 -33 c14 -28 22 -32 56 -32 36 0 55
13 30 22 -6 2 -3 18 8 40 l19 37 12 -26 c6 -14 9 -34 6 -44 -5 -14 -2 -17 9
-13 9 4 23 1 31 -6 12 -10 15 -9 15 4 0 9 -4 16 -10 16 -22 0 20 59 43 60 4 0
7 -9 7 -20 0 -11 -7 -20 -15 -20 -9 0 -15 -9 -15 -25 0 -19 5 -25 22 -25 21 0
21 0 2 14 -11 8 -15 18 -10 23 5 4 11 3 13 -4 2 -7 12 -9 20 -6 12 5 15 2 10
-10 -4 -11 -1 -17 9 -17 10 0 13 7 8 25 -8 32 4 32 16 0 7 -17 17 -25 34 -25
27 0 42 15 26 25 -6 4 -17 1 -25 -5 -12 -10 -14 -6 -11 22 4 47 18 47 41 0
l19 -41 130 0 c80 0 135 4 143 11 9 7 13 7 13 -1 0 -6 7 -11 15 -11 8 0 15 9
15 20 0 20 21 23 49 6 11 -7 11 -10 0 -17 -10 -6 -8 -9 9 -9 17 0 22 6 22 26
0 14 -4 23 -8 20 -4 -2 -14 0 -22 5 -13 8 -12 11 3 23 16 13 15 46 -3 46 -8 0
-11 8 -29 64 -9 25 -8 28 11 23 16 -5 18 -3 9 6 -6 6 -11 19 -11 29 0 10 -5
18 -12 18 -6 0 -8 -3 -5 -6 3 -4 0 -16 -8 -28 -8 -11 -15 -28 -15 -37 0 -12
-6 -16 -20 -12 -16 4 -20 0 -20 -17 0 -13 -5 -20 -12 -17 -8 2 -12 19 -10 43
2 25 -1 34 -6 26 -8 -11 -10 -11 -15 2 -8 19 23 22 40 5 14 -14 43 10 43 35 0
9 5 16 11 16 6 0 9 9 6 20 -3 10 1 24 9 31 8 6 15 8 15 3 1 -5 2 -13 4 -19 1
-5 3 -18 3 -27 1 -9 14 -30 28 -45 l25 -28 -7 25 c-3 14 -15 42 -25 62 -11 21
-17 38 -13 38 4 0 1 7 -6 15 -10 12 -10 15 4 15 19 0 20 13 4 40 -16 25 -3 38
22 22 11 -7 29 -12 41 -12 19 0 20 -4 14 -39 -6 -37 6 -63 19 -42 4 5 2 12 -4
16 -15 9 -12 25 5 25 8 0 15 -5 15 -11 0 -5 5 -7 10 -4 12 7 13 -15 2 -31 -4
-6 -14 -14 -22 -17 -10 -4 -8 -6 7 -6 12 -1 24 5 27 12 3 6 3 -5 0 -25 -4 -25
-2 -38 5 -38 7 0 21 -9 33 -20 24 -22 38 -26 38 -10 0 6 -7 10 -15 10 -9 0
-16 14 -20 38 -3 20 -11 46 -17 57 -6 11 -14 27 -18 35 -4 8 -25 53 -48 100
-57 119 -74 184 -45 173 7 -3 10 -9 7 -14 -10 -16 17 -83 43 -108 14 -13 31
-37 38 -54 7 -16 15 -25 19 -19 7 11 -38 119 -61 144 -8 9 -13 20 -10 25 3 5
-7 26 -22 49 -20 28 -25 46 -20 59 7 17 8 18 8 3 1 -10 5 -18 10 -18 12 0 22
45 15 64 -7 17 11 22 21 6 10 -16 27 0 20 18 -3 8 0 19 7 24 9 6 5 7 -9 3 -13
-4 -23 -2 -23 4 0 13 -48 61 -60 61 -6 0 -10 -4 -10 -10 0 -5 -4 -10 -10 -10
-5 0 -10 7 -10 15 0 10 -10 15 -26 15 -20 0 -24 -3 -16 -12 6 -8 6 -22 1 -35
-9 -25 -21 -31 -18 -10 4 29 -2 38 -23 35 -17 -2 -22 -9 -20 -22 3 -17 2 -18
-12 -7 -9 8 -16 10 -16 5 0 -10 -19 -11 -161 -13 -54 -1 -109 3 -124 9 -14 5
-56 10 -93 10 l-66 0 -84 90 c-47 50 -92 90 -101 90 -11 0 -5 -9 16 -25z m753
-170 c21 -25 1 -31 -22 -7 -18 18 -19 22 -6 22 8 0 21 -7 28 -15z m-603 -25
c14 -11 31 -20 37 -20 6 0 26 -14 45 -30 18 -17 40 -30 47 -30 28 0 46 -31 39
-70 -8 -46 1 -53 54 -41 23 5 41 7 41 4 0 -2 -11 -21 -25 -41 -28 -41 -31 -58
-12 -65 7 -3 4 -6 -6 -6 -10 -1 -32 12 -48 28 -16 16 -29 27 -29 25 0 -16 -66
34 -91 69 -17 23 -39 47 -50 53 -24 13 -59 63 -54 78 2 6 6 23 9 39 8 32 10
33 43 7z m613 -46 c0 -3 -7 -1 -15 6 -8 7 -15 17 -15 22 0 5 7 3 15 -6 8 -8
15 -18 15 -22z m-97 -46 c5 -33 3 -38 -14 -38 -19 0 -23 -9 -19 -43 1 -15 -3
-17 -19 -12 -22 7 -25 -1 -21 -59 1 -17 -2 -26 -9 -22 -5 4 -15 -3 -21 -14 -6
-11 -16 -20 -22 -20 -7 0 -7 4 1 13 6 8 8 16 5 20 -6 6 16 78 26 87 17 15 47
90 48 115 0 46 1 47 21 28 10 -10 21 -35 24 -55z m-103 42 c0 -5 -2 -10 -4
-10 -3 0 -8 5 -11 10 -3 6 -1 10 4 10 6 0 11 -4 11 -10z m180 -20 c0 -5 -2
-10 -4 -10 -3 0 -8 5 -11 10 -3 6 -1 10 4 10 6 0 11 -4 11 -10z m-40 -30 c0
-5 -2 -10 -4 -10 -3 0 -8 5 -11 10 -3 6 -1 10 4 10 6 0 11 -4 11 -10z m-890
-100 c0 -10 9 -28 21 -39 12 -11 18 -24 14 -30 -10 -18 -25 -13 -25 8 0 11 -6
26 -12 33 -17 17 -22 48 -8 48 5 0 10 -9 10 -20z m-45 0 c3 -5 1 -10 -4 -10
-6 0 -11 5 -11 10 0 6 2 10 4 10 3 0 8 -4 11 -10z m895 -9 c3 -1 -1 -5 -8 -9
-10 -7 -10 -14 3 -38 17 -33 20 -58 5 -49 -11 7 -50 79 -50 93 0 8 28 9 50 3z
m70 -22 c0 -14 -17 -10 -23 5 -4 10 -1 13 9 9 7 -3 14 -9 14 -14z m-660 -16
c-1 -27 -1 -27 -15 -9 -19 25 -19 36 0 36 10 0 15 -10 15 -27z m682 -15 c-3
-18 -11 -37 -19 -41 -7 -5 -11 -13 -7 -18 7 -12 -14 -39 -30 -39 -7 0 -6 3 2
8 10 7 10 14 -3 38 -17 34 -19 54 -5 54 6 0 10 -7 10 -16 0 -9 5 -14 11 -12 6
2 9 6 7 10 -2 5 30 48 37 48 1 0 -1 -15 -3 -32z m-982 8 c0 -8 8 -21 18 -28
21 -16 62 -83 62 -104 0 -26 -20 -14 -34 21 -8 19 -20 34 -27 33 -14 -4 -53
68 -44 82 9 15 25 12 25 -4z m245 -15 c3 -5 1 -12 -5 -16 -5 -3 -10 1 -10 9 0
18 6 21 15 7z m-133 -55 c7 5 8 2 4 -5 -6 -9 -13 -8 -26 6 -13 14 -15 21 -6
32 9 12 12 9 14 -12 2 -17 8 -25 14 -21z m233 -25 c-9 -8 -25 21 -25 44 0 16
3 14 15 -9 9 -16 13 -32 10 -35z m495 49 c0 -5 -7 -10 -15 -10 -8 0 -15 5 -15
10 0 6 7 10 15 10 8 0 15 -4 15 -10z m-60 -31 c0 -5 -4 -9 -10 -9 -5 0 -10 7
-10 16 0 8 5 12 10 9 6 -3 10 -10 10 -16z m-587 -2 c3 -8 -3 -14 -14 -14 -11
-1 -19 5 -19 13 0 18 26 19 33 1z m650 -16 c-4 -16 -8 -19 -14 -10 -4 7 -3 19
3 26 14 18 19 12 11 -16z m161 23 c26 -10 18 -23 -13 -22 -20 1 -28 5 -24 14
6 15 14 17 37 8z m-694 -36 c0 -5 -4 -8 -10 -8 -5 0 -10 10 -10 23 0 18 2 19
10 7 5 -8 10 -18 10 -22z m587 15 c3 -7 -4 -9 -16 -6 -12 3 -18 9 -15 15 7 11
26 6 31 -9z m-527 -28 c0 -8 -4 -15 -10 -15 -5 0 -10 7 -10 15 0 8 5 15 10 15
6 0 10 -7 10 -15z m-340 -21 c13 -33 13 -47 0 -39 -5 3 -10 17 -10 30 0 14 -7
25 -17 28 -17 4 -17 5 0 6 10 1 21 -10 27 -25z m-80 6 c0 -5 -2 -10 -4 -10 -3
0 -8 5 -11 10 -3 6 -1 10 4 10 6 0 11 -4 11 -10z m958 -1 c-2 -6 -8 -10 -13
-10 -5 0 -11 4 -13 10 -2 6 4 11 13 11 9 0 15 -5 13 -11z m-788 -3 c0 -3 -4
-8 -10 -11 -5 -3 -10 -1 -10 4 0 6 5 11 10 11 6 0 10 -2 10 -4z m95 -6 c3 -5
2 -10 -4 -10 -5 0 -13 5 -16 10 -3 6 -2 10 4 10 5 0 13 -4 16 -10z m670 -10
c7 -11 -5 -63 -13 -56 -3 3 -11 1 -17 -4 -10 -8 -10 -1 -2 30 11 40 20 49 32
30z m-905 -21 c0 -5 -4 -9 -10 -9 -5 0 -10 7 -10 16 0 8 5 12 10 9 6 -3 10
-10 10 -16z m126 -27 c-10 -10 -29 15 -21 28 6 9 10 8 17 -4 6 -10 7 -20 4
-24z m824 11 c0 -26 -1 -26 -14 -8 -14 20 -12 35 5 35 5 0 9 -12 9 -27z m-750
-2 c0 -6 -4 -13 -10 -16 -5 -3 -10 1 -10 9 0 9 5 16 10 16 6 0 10 -4 10 -9z
m95 -11 c3 -5 1 -10 -4 -10 -6 0 -11 5 -11 10 0 6 2 10 4 10 3 0 8 -4 11 -10z
m634 -46 c3 -16 1 -17 -13 -5 -19 16 -21 34 -3 29 6 -3 14 -13 16 -24z m-519
-40 c0 -8 -4 -12 -10 -9 -5 3 -10 10 -10 16 0 5 5 9 10 9 6 0 10 -7 10 -16z
m-140 -9 c7 -8 8 -15 2 -15 -5 0 -15 7 -22 15 -7 8 -8 15 -2 15 5 0 15 -7 22
-15z m74 -46 c-23 -25 -34 -24 -33 4 0 12 3 16 6 10 8 -21 26 -14 20 8 -5 17
-3 18 9 8 13 -10 12 -14 -2 -30z m-396 6 c-3 -3 -9 2 -12 12 -6 14 -5 15 5 6
7 -7 10 -15 7 -18z m252 -1 c0 -8 -4 -12 -10 -9 -5 3 -10 13 -10 21 0 8 5 12
10 9 6 -3 10 -13 10 -21z m30 6 c0 -5 -4 -10 -10 -10 -5 0 -10 5 -10 10 0 6 5
10 10 10 6 0 10 -4 10 -10z m40 3 c-1 -11 -26 -43 -34 -43 -10 0 -7 25 6 38
13 13 28 16 28 5z m160 3 c0 -3 -4 -8 -10 -11 -5 -3 -10 -1 -10 4 0 6 5 11 10
11 6 0 10 -2 10 -4z m-530 -46 c0 -11 -4 -20 -9 -20 -11 0 -22 26 -14 34 12
12 23 5 23 -14z m470 10 c0 -5 -4 -10 -10 -10 -5 0 -10 5 -10 10 0 6 5 10 10
10 6 0 10 -4 10 -10z m-200 -16 c0 -8 -5 -12 -10 -9 -6 4 -8 11 -5 16 9 14 15
11 15 -7z m118 -11 c-4 -22 -38 -30 -38 -10 0 14 13 24 33 26 5 1 7 -7 5 -16z
m402 -79 c6 -26 5 -34 -6 -34 -8 0 -14 9 -14 20 0 11 -5 20 -11 20 -7 0 -9 10
-7 25 3 14 1 25 -4 25 -5 0 -6 5 -3 11 10 14 36 -24 45 -67z m260 54 c0 -19
-2 -20 -11 -8 -8 11 -12 12 -16 3 -2 -7 -11 -13 -19 -13 -9 0 -12 -5 -8 -12 5
-10 4 -10 -6 -1 -17 15 1 40 33 46 12 2 23 5 25 6 1 0 2 -9 2 -21z m-516 6 c9
-3 16 -11 16 -16 0 -7 -4 -7 -12 0 -7 5 -22 12 -33 15 -15 3 -16 5 -3 6 9 0
23 -2 32 -5z m-278 -51 c-4 -4 -11 -1 -16 7 -16 25 -11 35 7 17 9 -9 13 -20 9
-24z m-279 5 c-3 -8 -6 -5 -6 6 -1 11 2 17 5 13 3 -3 4 -12 1 -19z m337 7 c3
-8 1 -25 -5 -37 -9 -21 -9 -21 -4 5 3 15 1 27 -5 27 -5 0 -10 5 -10 10 0 15
17 12 24 -5z m291 -5 c3 -5 1 -10 -4 -10 -6 0 -11 5 -11 10 0 6 2 10 4 10 3 0
8 -4 11 -10z m345 -6 c0 -8 -4 -12 -10 -9 -5 3 -10 10 -10 16 0 5 5 9 10 9 6
0 10 -7 10 -16z m103 4 c5 -16 -10 -48 -23 -48 -6 0 -10 7 -10 15 0 8 -5 15
-11 15 -8 0 -8 5 1 15 15 18 37 20 43 3z m-668 -19 c8 -23 1 -34 -14 -24 -13
8 -15 45 -2 45 5 0 13 -9 16 -21z m-161 -25 c4 -11 1 -14 -11 -12 -9 2 -18 9
-21 16 -6 18 25 15 32 -4z m660 -20 c4 -10 1 -14 -6 -12 -15 5 -23 28 -10 28
5 0 13 -7 16 -16z m-497 -16 c-3 -8 -6 -5 -6 6 -1 11 2 17 5 13 3 -3 4 -12 1
-19z m433 7 c0 -19 -16 -19 -24 0 -3 9 0 15 9 15 8 0 15 -7 15 -15z m125 6 c3
-5 1 -12 -5 -16 -5 -3 -10 1 -10 9 0 18 6 21 15 7z"/>
<path d="M4037 710 c7 -25 23 -37 23 -17 0 8 -6 20 -14 26 -12 10 -13 8 -9 -9z"/>
<path d="M4080 606 c0 -9 7 -16 16 -16 17 0 14 22 -4 28 -7 2 -12 -3 -12 -12z"/>
<path d="M4185 581 c-3 -5 -1 -12 5 -16 5 -3 10 1 10 9 0 18 -6 21 -15 7z"/>
<path d="M244 925 c-10 -8 -14 -15 -7 -15 19 0 43 11 43 21 0 13 -14 11 -36
-6z"/>
<path d="M1080 928 c0 -6 -37 -7 -105 -3 -78 6 -105 4 -105 -4 0 -7 -5 -9 -12
-4 -18 11 -92 11 -99 0 -4 -5 -16 -3 -28 5 -18 11 -23 11 -30 -1 -7 -11 -9
-11 -14 0 -3 8 -6 4 -6 -8 -1 -24 13 -28 70 -24 34 2 57 -23 39 -44 -7 -8 -19
-15 -26 -15 -8 0 -14 -4 -14 -10 0 -13 16 -13 40 0 14 7 20 6 24 -6 5 -13 9
-14 20 -5 10 8 16 9 21 1 8 -13 58 -13 130 2 49 10 66 19 102 56 23 25 40 48
38 52 -8 12 -45 19 -45 8z m-256 -54 c20 -8 21 -34 2 -34 -7 0 -16 9 -19 20
-6 22 -5 23 17 14z m96 -46 c0 -19 -2 -20 -10 -8 -13 19 -13 30 0 30 6 0 10
-10 10 -22z"/>
<path d="M460 924 c0 -17 17 -36 24 -26 3 5 -1 15 -9 22 -8 7 -15 9 -15 4z"/>
<path d="M552 923 c-38 -7 -19 -28 26 -29 23 0 42 1 42 4 0 6 -34 32 -40 30
-3 0 -15 -3 -28 -5z"/>
<path d="M640 909 c0 -5 5 -7 10 -4 6 3 10 8 10 11 0 2 -4 4 -10 4 -5 0 -10
-5 -10 -11z"/>
<path d="M420 899 c0 -5 5 -7 10 -4 6 3 10 8 10 11 0 2 -4 4 -10 4 -5 0 -10
-5 -10 -11z"/>
<path d="M3800 866 c0 -8 4 -17 9 -20 5 -4 7 3 4 14 -6 23 -13 26 -13 6z"/>
<path d="M4800 850 c0 -5 7 -10 16 -10 8 0 12 5 9 10 -3 6 -10 10 -16 10 -5 0
-9 -4 -9 -10z"/>
<path d="M695 820 c-3 -5 3 -10 14 -10 12 0 21 5 21 10 0 6 -6 10 -14 10 -8 0
-18 -4 -21 -10z"/>
<path d="M4727 776 c-7 -17 16 -62 42 -82 8 -6 12 -20 8 -32 -3 -12 0 -25 5
-29 7 -3 8 -1 4 5 -4 7 -1 12 8 12 22 0 20 16 -4 40 -11 11 -20 29 -20 39 0
10 -8 29 -18 41 -17 21 -19 21 -25 6z"/>
<path d="M663 730 c3 -13 0 -29 -9 -37 -8 -8 -14 -20 -14 -26 0 -8 3 -7 9 2 5
7 13 11 18 8 12 -8 41 25 35 41 -2 7 -13 17 -24 23 -19 10 -20 9 -15 -11z"/>
<path d="M4698 738 c-16 -12 -16 -15 -1 -48 10 -19 21 -36 25 -38 4 -2 8 -10
8 -17 0 -18 61 -115 72 -115 5 0 8 8 7 18 -3 33 1 42 21 42 11 0 20 5 20 10 0
18 -29 11 -42 -10 -17 -27 -25 -25 -33 7 -3 15 -16 48 -27 73 -12 25 -24 55
-27 68 -5 19 -9 21 -23 10z"/>
<path d="M3781 728 c1 -7 5 -24 9 -38 7 -21 8 -22 10 -5 1 11 3 28 5 38 2 9
-3 17 -11 17 -8 0 -14 -6 -13 -12z"/>
<path d="M533 713 c-15 -5 -17 -23 -4 -23 5 0 11 7 15 15 3 8 4 15 3 14 -1 0
-8 -3 -14 -6z"/>
<path d="M4653 684 c-5 -14 33 -61 42 -52 7 7 -18 68 -28 68 -4 0 -10 -7 -14
-16z"/>
<path d="M465 670 c-3 -5 1 -10 9 -10 9 0 16 5 16 10 0 6 -4 10 -9 10 -6 0
-13 -4 -16 -10z"/>
<path d="M3510 644 c0 -14 4 -23 10 -19 6 3 10 15 10 26 0 10 -4 19 -10 19 -5
0 -10 -12 -10 -26z"/>
<path d="M4835 650 c4 -6 11 -8 16 -5 5 4 9 1 9 -4 0 -6 10 -11 22 -11 21 0
21 0 2 15 -22 16 -58 20 -49 5z"/>
<path d="M498 634 c-4 -3 -3 -15 3 -25 6 -13 6 -19 -1 -19 -5 0 -10 -4 -10 -8
0 -5 7 -9 15 -9 16 0 17 8 6 45 -3 13 -9 20 -13 16z"/>
<path d="M3487 614 c-10 -10 -9 -42 2 -48 5 -3 11 0 14 7 6 16 -7 50 -16 41z"/>
<path d="M4676 611 c-3 -5 1 -12 9 -15 9 -3 20 -17 25 -31 5 -14 14 -25 20
-25 6 0 0 18 -12 40 -23 40 -32 47 -42 31z"/>
<path d="M4891 579 c5 -10 14 -19 19 -19 6 0 10 -8 10 -17 0 -12 3 -14 11 -6
14 14 -7 50 -33 56 -15 4 -16 2 -7 -14z"/>
<path d="M3455 540 c-7 -23 2 -43 16 -35 12 8 12 42 0 50 -5 3 -12 -4 -16 -15z"/>
<path d="M4860 550 c0 -5 7 -10 16 -10 8 0 12 5 9 10 -3 6 -10 10 -16 10 -5 0
-9 -4 -9 -10z"/>
<path d="M4740 517 c0 -7 7 -22 15 -33 13 -17 14 -16 4 14 -11 33 -19 41 -19
19z"/>
<path d="M4940 526 c0 -2 7 -9 15 -16 12 -10 15 -10 15 4 0 9 -7 16 -15 16 -8
0 -15 -2 -15 -4z"/>
<path d="M3431 478 c-11 -29 -6 -58 10 -58 16 0 21 28 11 57 l-10 28 -11 -27z"/>
<path d="M4946 474 c-4 -10 -1 -14 6 -12 15 5 23 28 10 28 -5 0 -13 -7 -16
-16z"/>
<path d="M447 445 c-4 -8 -2 -17 3 -20 6 -4 10 -4 10 -1 0 2 3 11 6 20 3 9 2
16 -4 16 -5 0 -12 -7 -15 -15z"/>
<path d="M4960 431 c0 -11 4 -22 10 -26 5 -3 6 -13 3 -22 -4 -11 -3 -14 5 -9
17 10 15 45 -3 62 -13 14 -15 13 -15 -5z"/>
<path d="M4860 422 c0 -6 18 -20 41 -31 24 -12 39 -15 36 -8 -2 7 -12 14 -23
16 -10 1 -27 10 -36 19 -11 9 -18 11 -18 4z"/>
<path d="M382 391 c-21 -18 -29 -31 -23 -35 6 -4 11 -2 11 3 0 6 7 11 15 11 8
0 15 7 15 15 0 8 7 15 15 15 8 0 15 5 15 10 0 16 -13 11 -48 -19z"/>
<path d="M479 403 c-13 -16 -12 -17 4 -4 16 13 21 21 13 21 -2 0 -10 -8 -17
-17z"/>
<path d="M4740 394 c21 -54 54 -114 63 -114 5 0 6 7 3 16 -3 9 -9 27 -12 40
-3 13 -10 24 -15 24 -5 0 -9 12 -9 27 0 14 -3 23 -7 20 -3 -4 -12 -2 -20 5
-11 9 -12 6 -3 -18z"/>
<path d="M3411 388 c-1 -15 4 -30 9 -33 12 -7 12 12 0 40 -8 18 -9 17 -9 -7z"/>
<path d="M520 392 c0 -5 8 -17 18 -28 10 -11 17 -25 15 -31 -2 -6 1 -14 6 -18
16 -9 13 -35 -3 -35 -7 0 -16 9 -19 20 -3 11 -12 20 -21 20 -22 0 -20 -13 4
-30 11 -8 20 -22 20 -32 0 -25 18 -31 25 -8 3 11 13 20 21 20 8 0 14 5 14 11
0 5 5 7 10 4 6 -3 10 -1 10 4 0 6 -5 11 -10 11 -6 0 -24 23 -41 50 -28 45 -49
63 -49 42z"/>
<path d="M757 365 c-10 -14 -13 -25 -7 -25 5 0 10 4 10 9 0 5 9 13 20 16 11 4
18 11 15 16 -9 14 -19 10 -38 -16z"/>
<path d="M4620 381 c0 -6 4 -13 10 -16 6 -3 7 1 4 9 -7 18 -14 21 -14 7z"/>
<path d="M4870 375 c0 -8 4 -15 10 -15 5 0 7 7 4 15 -4 8 -8 15 -10 15 -2 0
-4 -7 -4 -15z"/>
<path d="M4810 375 c0 -5 5 -17 10 -25 5 -8 10 -10 10 -5 0 6 -5 17 -10 25 -5
8 -10 11 -10 5z"/>
<path d="M428 363 c7 -3 16 -2 19 1 4 3 -2 6 -13 5 -11 0 -14 -3 -6 -6z"/>
<path d="M587 350 c6 -22 23 -38 23 -21 0 17 -12 41 -20 41 -5 0 -6 -9 -3 -20z"/>
<path d="M772 293 c-58 -65 -62 -88 -4 -27 20 22 46 45 57 52 14 8 17 14 9 22
-8 8 -25 -5 -62 -47z"/>
<path d="M4590 337 c0 -18 24 -67 33 -67 10 0 9 8 -5 47 -12 33 -28 45 -28 20z"/>
<path d="M4920 346 c0 -2 7 -19 15 -37 14 -34 20 -23 9 19 -5 18 -24 33 -24
18z"/>
<path d="M3194 305 c0 -19 4 -35 8 -35 4 0 8 16 8 35 0 19 -4 35 -8 35 -4 0
-8 -16 -8 -35z"/>
<path d="M5001 323 c7 -12 15 -20 18 -17 3 2 -3 12 -13 22 -17 16 -18 16 -5
-5z"/>
<path d="M3376 322 c-3 -5 -1 -14 5 -22 5 -8 9 -18 9 -22 0 -13 -28 -9 -34 5
-3 6 -2 -1 1 -18 3 -16 12 -39 19 -50 13 -18 14 -17 14 18 0 20 5 37 10 37 16
0 12 47 -5 53 -8 4 -16 3 -19 -1z"/>
<path d="M3106 275 c4 -8 10 -15 15 -15 4 0 6 7 3 15 -4 8 -10 15 -15 15 -4 0
-6 -7 -3 -15z"/>
<path d="M4760 272 c0 -5 6 -15 14 -21 12 -10 14 -9 12 5 -3 19 -26 33 -26 16z"/>
<path d="M4815 238 c5 -25 4 -29 -4 -18 -15 21 -14 -2 1 -37 7 -15 19 -32 26
-36 8 -6 11 -18 8 -32 -3 -13 -2 -34 3 -47 6 -13 10 -19 10 -14 1 4 10 -2 20
-15 11 -13 22 -21 26 -18 3 4 0 13 -8 20 -7 8 -17 32 -20 54 -4 22 -11 41 -17
43 -12 4 -13 32 -1 32 5 0 11 -6 14 -12 2 -7 7 -10 11 -7 4 4 -6 20 -23 36
-20 20 -27 34 -21 44 5 8 4 19 -2 26 -19 23 -30 14 -23 -19z m55 -138 c0 -5
-4 -10 -10 -10 -5 0 -10 5 -10 10 0 6 5 10 10 10 6 0 10 -4 10 -10z"/>
<path d="M4874 255 c8 -8 20 -15 27 -15 9 0 8 4 -1 15 -7 8 -19 15 -27 15 -12
0 -12 -2 1 -15z"/>
<path d="M437 254 c-8 -8 1 -24 14 -24 5 0 9 7 9 15 0 15 -12 20 -23 9z"/>
<path d="M3030 245 c-10 -13 -9 -15 9 -15 11 0 21 4 21 9 0 18 -18 21 -30 6z"/>
<path d="M485 240 c-7 -11 11 -40 25 -40 4 0 5 11 2 25 -5 26 -16 32 -27 15z"/>
<path d="M870 240 c0 -5 5 -10 10 -10 6 0 10 5 10 10 0 6 -4 10 -10 10 -5 0
-10 -4 -10 -10z"/>
<path d="M3090 221 c0 -11 4 -21 9 -21 18 0 21 18 6 30 -13 10 -15 9 -15 -9z"/>
<path d="M4636 231 c-4 -7 -5 -15 -2 -18 9 -9 19 4 14 18 -4 11 -6 11 -12 0z"/>
<path d="M686 214 c-4 -10 -1 -14 6 -12 15 5 23 28 10 28 -5 0 -13 -7 -16 -16z"/>
<path d="M1010 220 c0 -5 -7 -10 -15 -10 -8 0 -15 -5 -15 -11 0 -7 -16 -28
-36 -47 -36 -35 -39 -51 -7 -37 10 5 23 7 30 6 6 -1 13 9 15 21 2 15 9 22 19
20 10 -1 19 6 22 18 8 32 28 25 21 -7 -4 -16 -3 -25 1 -20 5 4 10 24 12 45 2
28 0 33 -8 22 -8 -11 -12 -12 -16 -2 -6 14 -23 16 -23 2z"/>
<path d="M4695 220 c-3 -6 1 -17 9 -25 8 -9 12 -23 9 -31 -4 -11 -9 -12 -16
-5 -15 15 -27 14 -27 -4 0 -8 -4 -15 -8 -15 -4 0 -6 -16 -4 -35 3 -28 8 -34
21 -30 12 3 21 -5 32 -29 16 -34 15 -35 -5 -39 -17 -3 -16 -5 5 -6 44 -2 47
36 8 87 -12 15 -19 18 -22 10 -4 -10 -8 -9 -16 2 -14 20 14 27 36 9 14 -12 15
-10 9 19 -4 18 -4 32 2 32 5 0 9 13 9 29 0 23 -4 27 -20 23 -14 -3 -18 -1 -13
6 4 7 5 12 2 12 -3 0 -8 -5 -11 -10z"/>
<path d="M4906 215 c4 -8 10 -15 14 -15 4 0 10 7 14 15 4 10 -1 15 -14 15 -13
0 -18 -5 -14 -15z"/>
<path d="M402 200 c-1 -23 33 -78 43 -68 9 8 -8 48 -20 48 -8 0 -16 10 -18 23
-4 21 -4 20 -5 -3z"/>
<path d="M720 185 c-10 -13 -9 -15 8 -15 15 0 20 5 16 15 -4 8 -7 15 -9 15 -1
0 -8 -7 -15 -15z"/>
<path d="M3353 185 c-10 -18 -43 -132 -43 -149 0 -9 24 -2 32 9 4 6 8 29 8 52
0 23 5 43 11 45 6 2 9 17 7 33 -3 28 -4 29 -15 10z"/>
<path d="M4620 185 c0 -8 4 -15 10 -15 5 0 7 7 4 15 -4 8 -8 15 -10 15 -2 0
-4 -7 -4 -15z"/>
<path d="M4780 186 c0 -9 5 -16 10 -16 6 0 10 4 10 9 0 6 -4 13 -10 16 -5 3
-10 -1 -10 -9z"/>
<path d="M660 180 c-9 -6 -10 -10 -3 -10 6 0 15 5 18 10 8 12 4 12 -15 0z"/>
<path d="M900 169 c0 -5 5 -7 10 -4 6 3 10 8 10 11 0 2 -4 4 -10 4 -5 0 -10
-5 -10 -11z"/>
<path d="M2830 163 c-13 -15 -12 -16 4 -10 10 4 20 7 22 7 2 0 4 5 4 10 0 15
-13 12 -30 -7z"/>
<path d="M2794 155 c1 -8 8 -21 16 -28 12 -10 12 -9 2 4 -6 9 -9 18 -6 21 3 3
1 9 -4 12 -6 3 -9 -1 -8 -9z"/>
<path d="M2543 146 c3 -8 1 -17 -6 -19 -8 -3 -7 -9 4 -18 9 -8 24 -27 32 -44
l16 -30 -3 38 c-1 21 -8 42 -16 47 -7 4 -10 12 -6 18 3 5 -1 13 -10 16 -11 4
-15 2 -11 -8z"/>
<path d="M2670 150 c0 -5 5 -10 10 -10 6 0 10 -11 10 -25 0 -31 15 -33 18 -2
1 13 -7 28 -18 35 -12 7 -20 8 -20 2z"/>
<path d="M2720 150 c0 -5 4 -10 9 -10 6 0 13 5 16 10 3 6 -1 10 -9 10 -9 0
-16 -4 -16 -10z"/>
<path d="M3000 149 c0 -5 5 -7 10 -4 6 3 10 8 10 11 0 2 -4 4 -10 4 -5 0 -10
-5 -10 -11z"/>
<path d="M4750 135 c0 -8 5 -15 10 -15 6 0 10 7 10 15 0 8 -4 15 -10 15 -5 0
-10 -7 -10 -15z"/>
<path d="M1174 124 c3 -9 6 -20 6 -25 0 -5 5 -9 10 -9 6 0 10 11 10 25 0 16
-6 25 -16 25 -11 0 -14 -5 -10 -16z"/>
<path d="M2606 132 c-3 -6 -1 -14 5 -17 15 -10 25 3 12 16 -7 7 -13 7 -17 1z"/>
<path d="M2860 131 c0 -6 5 -13 10 -16 6 -3 10 1 10 9 0 9 -4 16 -10 16 -5 0
-10 -4 -10 -9z"/>
<path d="M4600 126 c0 -8 5 -18 10 -21 6 -3 10 3 10 14 0 12 -4 21 -10 21 -5
0 -10 -6 -10 -14z"/>
<path d="M4890 126 c0 -8 5 -18 10 -21 6 -3 10 3 10 14 0 12 -4 21 -10 21 -5
0 -10 -6 -10 -14z"/>
<path d="M3190 110 c0 -5 5 -10 10 -10 6 0 10 5 10 10 0 6 -4 10 -10 10 -5 0
-10 -4 -10 -10z"/>
<path d="M3397 114 c-13 -14 -7 -39 17 -69 13 -17 26 -28 29 -25 7 8 -38 102
-46 94z"/>
<path d="M623 93 c-18 -7 -16 -33 2 -33 8 0 15 9 15 20 0 11 -1 20 -2 19 -2 0
-9 -3 -15 -6z"/>
<path d="M3000 70 c0 -16 2 -30 4 -30 2 0 13 -3 23 -6 16 -5 16 -4 -2 11 -14
12 -16 19 -7 22 17 7 15 33 -3 33 -10 0 -15 -10 -15 -30z"/>
<path d="M2825 80 c3 -5 8 -10 11 -10 2 0 4 5 4 10 0 6 -5 10 -11 10 -5 0 -7
-4 -4 -10z"/>
<path d="M890 70 c0 -5 -8 -10 -17 -10 -10 0 -25 -4 -33 -10 -12 -8 -12 -10 3
-15 11 -5 28 2 48 19 20 17 25 26 15 26 -9 0 -16 -4 -16 -10z"/>
<path d="M2630 65 c0 -8 4 -15 10 -15 5 0 7 7 4 15 -4 8 -8 15 -10 15 -2 0 -4
-7 -4 -15z"/>
<path d="M4770 70 c0 -5 7 -10 15 -10 8 0 15 5 15 10 0 6 -7 10 -15 10 -8 0
-15 -4 -15 -10z"/>
<path d="M1083 56 c-13 -6 -23 -18 -23 -28 0 -9 -8 -19 -17 -21 -10 -3 -1 -5
20 -6 36 -1 42 5 38 37 -1 6 3 12 9 12 5 0 10 5 10 10 0 12 -8 11 -37 -4z"/>
<path d="M771 44 c0 -11 3 -14 6 -6 3 7 2 16 -1 19 -3 4 -6 -2 -5 -13z"/>
<path d="M2780 44 c0 -8 5 -12 10 -9 6 3 10 10 10 16 0 5 -4 9 -10 9 -5 0 -10
-7 -10 -16z"/>
<path d="M572 34 c1 -9 9 -19 16 -22 9 -3 13 2 10 14 -1 9 -9 19 -16 22 -9 3
-13 -2 -10 -14z"/>
<path d="M2116 33 c-4 -9 -2 -21 4 -27 7 -7 10 -2 10 17 0 31 -5 34 -14 10z"/>
<path d="M2145 39 c-4 -6 -5 -12 -2 -15 2 -3 7 2 10 11 7 17 1 20 -8 4z"/>
<path d="M3087 27 c3 -15 9 -27 14 -27 13 0 11 13 -5 35 -13 18 -14 18 -9 -8z"/>
<path d="M4686 35 c8 -19 14 -19 14 0 0 8 -4 15 -10 15 -5 0 -7 -7 -4 -15z"/>
<path d="M681 24 c0 -11 3 -14 6 -6 3 7 2 16 -1 19 -3 4 -6 -2 -5 -13z"/>
<path d="M3367 34 c-18 -18 -6 -34 23 -32 17 1 30 6 30 11 0 5 -7 7 -15 3 -8
-3 -14 0 -12 6 2 13 -16 21 -26 12z"/>
<path d="M805 19 c-4 -6 -5 -13 -2 -16 7 -7 27 6 27 18 0 12 -17 12 -25 -2z"/>
<path d="M960 15 c-14 -16 -10 -18 14 -9 9 3 16 10 16 15 0 14 -16 11 -30 -6z"/>
<path d="M617 9 c7 -7 15 -10 18 -7 3 3 -2 9 -12 12 -14 6 -15 5 -6 -5z"/>
<path d="M2175 10 c-3 -5 -1 -10 4 -10 6 0 11 5 11 10 0 6 -2 10 -4 10 -3 0
-8 -4 -11 -10z"/>
<path d="M2755 10 c3 -5 11 -10 16 -10 6 0 7 5 4 10 -3 6 -11 10 -16 10 -6 0
-7 -4 -4 -10z"/>
<path d="M2840 10 c0 -5 5 -10 10 -10 6 0 10 5 10 10 0 6 -4 10 -10 10 -5 0
-10 -4 -10 -10z"/>
<path d="M2920 10 c20 -13 33 -13 25 0 -3 5 -14 10 -23 10 -15 0 -15 -2 -2
-10z"/>
<path d="M538 3 c7 -3 16 -2 19 1 4 3 -2 6 -13 5 -11 0 -14 -3 -6 -6z"/>
</g>
</svg>
